G04 EAGLE Gerber RS-274X export*
G75*
%MOMM*%
%FSLAX34Y34*%
%LPD*%
%INTop Copper*%
%IPPOS*%
%AMOC8*
5,1,8,0,0,1.08239X$1,22.5*%
G01*
%ADD10C,1.422400*%
%ADD11P,1.429621X8X112.500000*%
%ADD12C,1.676400*%
%ADD13C,1.524000*%
%ADD14C,0.152400*%

G36*
X406601Y10172D02*
X406601Y10172D01*
X406672Y10174D01*
X406721Y10192D01*
X406773Y10200D01*
X406836Y10234D01*
X406903Y10259D01*
X406944Y10291D01*
X406990Y10316D01*
X407039Y10368D01*
X407095Y10412D01*
X407124Y10456D01*
X407159Y10494D01*
X407190Y10559D01*
X407228Y10619D01*
X407241Y10670D01*
X407263Y10717D01*
X407271Y10788D01*
X407288Y10858D01*
X407284Y10910D01*
X407290Y10961D01*
X407275Y11032D01*
X407269Y11103D01*
X407249Y11151D01*
X407238Y11202D01*
X407201Y11263D01*
X407173Y11329D01*
X407128Y11385D01*
X407112Y11413D01*
X407094Y11428D01*
X407068Y11460D01*
X402009Y16520D01*
X398939Y23930D01*
X398939Y31950D01*
X402009Y39360D01*
X407680Y45031D01*
X415090Y48101D01*
X423110Y48101D01*
X430520Y45031D01*
X436191Y39360D01*
X439261Y31950D01*
X439261Y23930D01*
X436191Y16520D01*
X431132Y11460D01*
X431090Y11402D01*
X431041Y11350D01*
X431019Y11303D01*
X430988Y11261D01*
X430967Y11192D01*
X430937Y11127D01*
X430931Y11075D01*
X430916Y11025D01*
X430918Y10954D01*
X430910Y10883D01*
X430921Y10832D01*
X430922Y10780D01*
X430947Y10712D01*
X430962Y10642D01*
X430989Y10597D01*
X431007Y10549D01*
X431052Y10493D01*
X431088Y10431D01*
X431128Y10397D01*
X431160Y10357D01*
X431221Y10318D01*
X431275Y10271D01*
X431324Y10252D01*
X431367Y10224D01*
X431437Y10206D01*
X431503Y10179D01*
X431575Y10171D01*
X431606Y10163D01*
X431629Y10165D01*
X431670Y10161D01*
X442852Y10161D01*
X442876Y10165D01*
X442900Y10162D01*
X442997Y10184D01*
X443094Y10200D01*
X443116Y10212D01*
X443140Y10217D01*
X443224Y10269D01*
X443312Y10316D01*
X443329Y10333D01*
X443349Y10346D01*
X443413Y10422D01*
X443481Y10494D01*
X443491Y10516D01*
X443507Y10535D01*
X443543Y10627D01*
X443585Y10717D01*
X443588Y10741D01*
X443596Y10764D01*
X443613Y10931D01*
X441325Y209907D01*
X441322Y209924D01*
X441324Y209941D01*
X441301Y210044D01*
X441282Y210149D01*
X441274Y210164D01*
X441270Y210182D01*
X441215Y210272D01*
X441165Y210365D01*
X441152Y210377D01*
X441143Y210392D01*
X441062Y210460D01*
X440984Y210532D01*
X440968Y210539D01*
X440955Y210551D01*
X440856Y210590D01*
X440760Y210633D01*
X440743Y210635D01*
X440726Y210641D01*
X440559Y210659D01*
X424297Y210569D01*
X424228Y210557D01*
X424158Y210555D01*
X424108Y210536D01*
X424054Y210527D01*
X423993Y210494D01*
X423927Y210471D01*
X423885Y210437D01*
X423837Y210411D01*
X423790Y210360D01*
X423735Y210317D01*
X423706Y210271D01*
X423669Y210232D01*
X423640Y210169D01*
X423602Y210110D01*
X423589Y210057D01*
X423567Y210008D01*
X423559Y209939D01*
X423542Y209871D01*
X423547Y209818D01*
X423541Y209764D01*
X423556Y209696D01*
X423561Y209626D01*
X423583Y209576D01*
X423594Y209524D01*
X423631Y209464D01*
X423658Y209400D01*
X423705Y209341D01*
X423722Y209313D01*
X423739Y209299D01*
X423763Y209269D01*
X428571Y204460D01*
X431641Y197050D01*
X431641Y189030D01*
X428571Y181620D01*
X422900Y175949D01*
X415490Y172879D01*
X407470Y172879D01*
X400060Y175949D01*
X394389Y181620D01*
X391319Y189030D01*
X391319Y197050D01*
X394389Y204460D01*
X399054Y209126D01*
X399097Y209185D01*
X399148Y209239D01*
X399168Y209285D01*
X399197Y209325D01*
X399219Y209396D01*
X399250Y209463D01*
X399255Y209513D01*
X399270Y209560D01*
X399268Y209634D01*
X399276Y209707D01*
X399265Y209756D01*
X399263Y209806D01*
X399238Y209876D01*
X399222Y209948D01*
X399196Y209990D01*
X399179Y210037D01*
X399133Y210095D01*
X399095Y210158D01*
X399057Y210190D01*
X399025Y210229D01*
X398963Y210269D01*
X398907Y210317D01*
X398860Y210335D01*
X398818Y210362D01*
X398747Y210380D01*
X398678Y210407D01*
X398611Y210415D01*
X398580Y210422D01*
X398555Y210420D01*
X398511Y210425D01*
X36474Y208410D01*
X36431Y208403D01*
X36388Y208405D01*
X36311Y208383D01*
X36232Y208369D01*
X36193Y208349D01*
X36151Y208336D01*
X36086Y208291D01*
X36015Y208253D01*
X35985Y208221D01*
X35949Y208196D01*
X35902Y208132D01*
X35847Y208074D01*
X35829Y208034D01*
X35802Y207999D01*
X35778Y207923D01*
X35744Y207850D01*
X35740Y207807D01*
X35726Y207765D01*
X35727Y207685D01*
X35719Y207605D01*
X35728Y207563D01*
X35729Y207519D01*
X35769Y207378D01*
X35772Y207365D01*
X35774Y207363D01*
X35775Y207358D01*
X37941Y202130D01*
X37941Y194110D01*
X34871Y186700D01*
X29200Y181029D01*
X21790Y177959D01*
X13770Y177959D01*
X6360Y181029D01*
X5946Y181443D01*
X5891Y181482D01*
X5843Y181529D01*
X5792Y181554D01*
X5746Y181586D01*
X5681Y181606D01*
X5621Y181635D01*
X5565Y181642D01*
X5511Y181659D01*
X5443Y181657D01*
X5377Y181665D01*
X5321Y181654D01*
X5265Y181652D01*
X5202Y181629D01*
X5136Y181616D01*
X5087Y181587D01*
X5034Y181568D01*
X4981Y181526D01*
X4923Y181492D01*
X4886Y181450D01*
X4842Y181414D01*
X4805Y181358D01*
X4761Y181307D01*
X4739Y181255D01*
X4709Y181207D01*
X4692Y181142D01*
X4666Y181080D01*
X4657Y181001D01*
X4649Y180969D01*
X4650Y180948D01*
X4646Y180914D01*
X3016Y40766D01*
X3023Y40717D01*
X3021Y40666D01*
X3042Y40596D01*
X3053Y40523D01*
X3076Y40479D01*
X3090Y40430D01*
X3132Y40370D01*
X3165Y40305D01*
X3201Y40270D01*
X3230Y40228D01*
X3289Y40184D01*
X3341Y40133D01*
X3387Y40111D01*
X3427Y40081D01*
X3497Y40059D01*
X3563Y40027D01*
X3613Y40021D01*
X3661Y40005D01*
X3735Y40006D01*
X3807Y39997D01*
X3857Y40007D01*
X3907Y40008D01*
X4023Y40041D01*
X4048Y40046D01*
X4056Y40051D01*
X4068Y40054D01*
X11230Y43021D01*
X19250Y43021D01*
X25646Y40372D01*
X25716Y40355D01*
X25783Y40329D01*
X25835Y40327D01*
X25885Y40315D01*
X25957Y40322D01*
X26028Y40319D01*
X26078Y40334D01*
X26130Y40338D01*
X26196Y40368D01*
X26265Y40388D01*
X26307Y40417D01*
X26355Y40438D01*
X26408Y40487D01*
X26467Y40528D01*
X26498Y40570D01*
X26536Y40605D01*
X26571Y40668D01*
X26613Y40725D01*
X26629Y40775D01*
X26655Y40820D01*
X26667Y40891D01*
X26690Y40959D01*
X26689Y41011D01*
X26698Y41062D01*
X26688Y41133D01*
X26687Y41205D01*
X26667Y41274D01*
X26663Y41306D01*
X26652Y41327D01*
X26640Y41366D01*
X25653Y43749D01*
X25653Y47691D01*
X27161Y51332D01*
X29948Y54119D01*
X33589Y55627D01*
X37531Y55627D01*
X41172Y54119D01*
X43959Y51332D01*
X45141Y48477D01*
X45203Y48377D01*
X45263Y48277D01*
X45267Y48273D01*
X45271Y48268D01*
X45361Y48193D01*
X45450Y48117D01*
X45455Y48115D01*
X45460Y48111D01*
X45569Y48069D01*
X45678Y48025D01*
X45685Y48024D01*
X45690Y48023D01*
X45708Y48022D01*
X45844Y48007D01*
X87129Y48007D01*
X87220Y48021D01*
X87310Y48029D01*
X87340Y48041D01*
X87372Y48046D01*
X87453Y48089D01*
X87537Y48125D01*
X87569Y48151D01*
X87590Y48162D01*
X87612Y48185D01*
X87668Y48230D01*
X111118Y71680D01*
X111129Y71696D01*
X111145Y71708D01*
X111201Y71796D01*
X111261Y71879D01*
X111267Y71898D01*
X111278Y71915D01*
X111303Y72016D01*
X111334Y72114D01*
X111333Y72134D01*
X111338Y72154D01*
X111330Y72257D01*
X111327Y72360D01*
X111320Y72379D01*
X111319Y72399D01*
X111278Y72494D01*
X111243Y72591D01*
X111230Y72607D01*
X111222Y72625D01*
X111118Y72756D01*
X109518Y74356D01*
X108203Y77530D01*
X108203Y95190D01*
X109518Y98364D01*
X111948Y100794D01*
X115122Y102109D01*
X118558Y102109D01*
X121732Y100794D01*
X124162Y98364D01*
X125477Y95190D01*
X125477Y77530D01*
X124162Y74356D01*
X123070Y73264D01*
X123059Y73248D01*
X123043Y73236D01*
X122987Y73148D01*
X122927Y73064D01*
X122921Y73045D01*
X122910Y73029D01*
X122885Y72928D01*
X122854Y72829D01*
X122855Y72809D01*
X122850Y72790D01*
X122858Y72687D01*
X122861Y72583D01*
X122868Y72565D01*
X122869Y72545D01*
X122910Y72450D01*
X122945Y72352D01*
X122958Y72337D01*
X122966Y72319D01*
X123070Y72188D01*
X156186Y39072D01*
X156280Y39004D01*
X156375Y38934D01*
X156381Y38932D01*
X156386Y38928D01*
X156497Y38894D01*
X156609Y38857D01*
X156615Y38858D01*
X156621Y38856D01*
X156738Y38859D01*
X156855Y38860D01*
X156862Y38862D01*
X156867Y38862D01*
X156885Y38868D01*
X157016Y38907D01*
X160589Y40387D01*
X164531Y40387D01*
X168172Y38879D01*
X170959Y36092D01*
X172467Y32451D01*
X172467Y28509D01*
X170959Y24868D01*
X168172Y22081D01*
X164531Y20573D01*
X160589Y20573D01*
X156948Y22081D01*
X154161Y24868D01*
X152653Y28509D01*
X152653Y32451D01*
X153538Y34587D01*
X153565Y34701D01*
X153594Y34814D01*
X153593Y34821D01*
X153594Y34827D01*
X153583Y34943D01*
X153574Y35060D01*
X153572Y35065D01*
X153571Y35072D01*
X153524Y35179D01*
X153478Y35286D01*
X153473Y35292D01*
X153471Y35296D01*
X153459Y35310D01*
X153373Y35417D01*
X118402Y70388D01*
X118328Y70441D01*
X118258Y70501D01*
X118228Y70513D01*
X118202Y70532D01*
X118115Y70559D01*
X118030Y70593D01*
X117989Y70597D01*
X117967Y70604D01*
X117935Y70603D01*
X117863Y70611D01*
X116833Y70611D01*
X116742Y70597D01*
X116652Y70589D01*
X116622Y70577D01*
X116590Y70572D01*
X116509Y70529D01*
X116425Y70493D01*
X116393Y70467D01*
X116372Y70456D01*
X116350Y70433D01*
X116294Y70388D01*
X89339Y43433D01*
X45844Y43433D01*
X45730Y43414D01*
X45613Y43397D01*
X45608Y43395D01*
X45602Y43394D01*
X45499Y43339D01*
X45394Y43286D01*
X45390Y43281D01*
X45384Y43278D01*
X45304Y43194D01*
X45222Y43110D01*
X45218Y43104D01*
X45215Y43100D01*
X45207Y43083D01*
X45141Y42963D01*
X43959Y40108D01*
X41172Y37321D01*
X37531Y35813D01*
X33589Y35813D01*
X32360Y36322D01*
X32266Y36345D01*
X32173Y36373D01*
X32146Y36373D01*
X32121Y36379D01*
X32024Y36369D01*
X31927Y36367D01*
X31902Y36358D01*
X31876Y36355D01*
X31787Y36316D01*
X31696Y36282D01*
X31675Y36266D01*
X31651Y36255D01*
X31580Y36190D01*
X31504Y36129D01*
X31489Y36107D01*
X31470Y36089D01*
X31423Y36003D01*
X31371Y35922D01*
X31364Y35896D01*
X31352Y35874D01*
X31334Y35778D01*
X31311Y35683D01*
X31313Y35657D01*
X31308Y35631D01*
X31322Y35535D01*
X31330Y35438D01*
X31340Y35414D01*
X31344Y35388D01*
X31388Y35301D01*
X31426Y35212D01*
X31446Y35186D01*
X31455Y35169D01*
X31479Y35146D01*
X31531Y35081D01*
X32331Y34280D01*
X35401Y26870D01*
X35401Y18850D01*
X32324Y11421D01*
X32310Y11402D01*
X32261Y11350D01*
X32239Y11303D01*
X32208Y11261D01*
X32187Y11192D01*
X32157Y11127D01*
X32151Y11075D01*
X32136Y11026D01*
X32138Y10954D01*
X32130Y10883D01*
X32141Y10832D01*
X32142Y10780D01*
X32167Y10712D01*
X32182Y10642D01*
X32209Y10598D01*
X32227Y10549D01*
X32272Y10493D01*
X32308Y10431D01*
X32348Y10397D01*
X32380Y10357D01*
X32441Y10318D01*
X32495Y10271D01*
X32544Y10252D01*
X32587Y10224D01*
X32657Y10206D01*
X32723Y10179D01*
X32795Y10171D01*
X32826Y10163D01*
X32849Y10165D01*
X32890Y10161D01*
X406530Y10161D01*
X406601Y10172D01*
G37*
%LPC*%
G36*
X180909Y38353D02*
X180909Y38353D01*
X177268Y39861D01*
X174481Y42648D01*
X172973Y46289D01*
X172973Y50231D01*
X174481Y53872D01*
X177268Y56659D01*
X180909Y58167D01*
X184851Y58167D01*
X188492Y56659D01*
X191279Y53872D01*
X192251Y51525D01*
X192312Y51425D01*
X192372Y51325D01*
X192377Y51321D01*
X192380Y51316D01*
X192470Y51241D01*
X192559Y51165D01*
X192565Y51163D01*
X192570Y51159D01*
X192678Y51117D01*
X192787Y51073D01*
X192795Y51072D01*
X192799Y51071D01*
X192818Y51070D01*
X192954Y51055D01*
X213360Y51055D01*
X213380Y51058D01*
X213399Y51056D01*
X213501Y51078D01*
X213603Y51094D01*
X213620Y51104D01*
X213640Y51108D01*
X213729Y51161D01*
X213820Y51210D01*
X213834Y51224D01*
X213851Y51234D01*
X213918Y51313D01*
X213990Y51388D01*
X213998Y51406D01*
X214011Y51421D01*
X214050Y51517D01*
X214093Y51611D01*
X214095Y51631D01*
X214103Y51649D01*
X214121Y51816D01*
X214121Y147828D01*
X214118Y147848D01*
X214120Y147867D01*
X214098Y147969D01*
X214082Y148071D01*
X214072Y148088D01*
X214068Y148108D01*
X214015Y148197D01*
X213966Y148288D01*
X213952Y148302D01*
X213942Y148319D01*
X213863Y148386D01*
X213788Y148458D01*
X213770Y148466D01*
X213755Y148479D01*
X213659Y148518D01*
X213565Y148561D01*
X213545Y148563D01*
X213527Y148571D01*
X213360Y148589D01*
X197173Y148589D01*
X194602Y151160D01*
X194528Y151213D01*
X194458Y151273D01*
X194428Y151285D01*
X194402Y151304D01*
X194315Y151331D01*
X194230Y151365D01*
X194189Y151369D01*
X194167Y151376D01*
X194135Y151375D01*
X194064Y151383D01*
X183642Y151383D01*
X183622Y151380D01*
X183603Y151382D01*
X183501Y151360D01*
X183399Y151343D01*
X183382Y151334D01*
X183362Y151330D01*
X183273Y151277D01*
X183182Y151228D01*
X183168Y151214D01*
X183151Y151204D01*
X183084Y151125D01*
X183013Y151050D01*
X183004Y151032D01*
X182991Y151017D01*
X182953Y150921D01*
X182909Y150827D01*
X182907Y150807D01*
X182899Y150789D01*
X182881Y150622D01*
X182881Y149859D01*
X182879Y149859D01*
X182879Y150622D01*
X182876Y150642D01*
X182878Y150661D01*
X182856Y150763D01*
X182839Y150865D01*
X182830Y150882D01*
X182826Y150902D01*
X182773Y150991D01*
X182724Y151082D01*
X182710Y151096D01*
X182700Y151113D01*
X182621Y151180D01*
X182546Y151251D01*
X182528Y151260D01*
X182513Y151273D01*
X182417Y151312D01*
X182323Y151355D01*
X182303Y151357D01*
X182285Y151365D01*
X182118Y151383D01*
X172062Y151383D01*
X172226Y152418D01*
X172758Y154053D01*
X173538Y155585D01*
X174549Y156976D01*
X175531Y157958D01*
X175573Y158016D01*
X175622Y158068D01*
X175644Y158115D01*
X175674Y158157D01*
X175695Y158226D01*
X175726Y158291D01*
X175731Y158343D01*
X175747Y158393D01*
X175745Y158464D01*
X175753Y158535D01*
X175742Y158586D01*
X175740Y158638D01*
X175716Y158706D01*
X175700Y158776D01*
X175674Y158821D01*
X175656Y158869D01*
X175611Y158925D01*
X175574Y158987D01*
X175535Y159021D01*
X175502Y159061D01*
X175442Y159100D01*
X175387Y159147D01*
X175339Y159166D01*
X175295Y159194D01*
X175226Y159212D01*
X175159Y159239D01*
X175088Y159247D01*
X175057Y159255D01*
X175033Y159253D01*
X174992Y159257D01*
X167344Y159257D01*
X167229Y159238D01*
X167113Y159221D01*
X167107Y159219D01*
X167101Y159218D01*
X166998Y159163D01*
X166893Y159110D01*
X166889Y159105D01*
X166883Y159102D01*
X166804Y159018D01*
X166721Y158934D01*
X166718Y158928D01*
X166714Y158924D01*
X166706Y158907D01*
X166640Y158787D01*
X165879Y156948D01*
X163092Y154161D01*
X159451Y152653D01*
X155509Y152653D01*
X151868Y154161D01*
X149081Y156948D01*
X147573Y160589D01*
X147573Y164531D01*
X149081Y168172D01*
X151868Y170959D01*
X155509Y172467D01*
X159451Y172467D01*
X163092Y170959D01*
X165879Y168172D01*
X167399Y164501D01*
X167410Y164451D01*
X167426Y164349D01*
X167436Y164332D01*
X167440Y164312D01*
X167493Y164223D01*
X167542Y164132D01*
X167556Y164118D01*
X167566Y164101D01*
X167645Y164034D01*
X167720Y163962D01*
X167738Y163954D01*
X167753Y163941D01*
X167849Y163902D01*
X167943Y163859D01*
X167963Y163857D01*
X167981Y163849D01*
X168148Y163831D01*
X188399Y163831D01*
X198844Y153386D01*
X198918Y153333D01*
X198988Y153273D01*
X199018Y153261D01*
X199044Y153242D01*
X199131Y153215D01*
X199216Y153181D01*
X199257Y153177D01*
X199279Y153170D01*
X199311Y153171D01*
X199383Y153163D01*
X239014Y153163D01*
X239034Y153166D01*
X239053Y153164D01*
X239155Y153186D01*
X239257Y153202D01*
X239274Y153212D01*
X239294Y153216D01*
X239383Y153269D01*
X239474Y153318D01*
X239488Y153332D01*
X239505Y153342D01*
X239572Y153421D01*
X239644Y153496D01*
X239652Y153514D01*
X239665Y153529D01*
X239704Y153625D01*
X239747Y153719D01*
X239749Y153739D01*
X239757Y153757D01*
X239775Y153924D01*
X239775Y159299D01*
X241167Y162660D01*
X243740Y165233D01*
X247101Y166625D01*
X250739Y166625D01*
X254100Y165233D01*
X256673Y162660D01*
X258065Y159299D01*
X258065Y140421D01*
X256673Y137060D01*
X254100Y134487D01*
X250739Y133095D01*
X247101Y133095D01*
X243740Y134487D01*
X241167Y137060D01*
X239775Y140421D01*
X239775Y147828D01*
X239772Y147848D01*
X239774Y147867D01*
X239752Y147969D01*
X239736Y148071D01*
X239726Y148088D01*
X239722Y148108D01*
X239669Y148197D01*
X239620Y148288D01*
X239606Y148302D01*
X239596Y148319D01*
X239517Y148386D01*
X239442Y148458D01*
X239424Y148466D01*
X239409Y148479D01*
X239313Y148518D01*
X239219Y148561D01*
X239199Y148563D01*
X239181Y148571D01*
X239014Y148589D01*
X219456Y148589D01*
X219436Y148586D01*
X219417Y148588D01*
X219315Y148566D01*
X219213Y148550D01*
X219196Y148540D01*
X219176Y148536D01*
X219087Y148483D01*
X218996Y148434D01*
X218982Y148420D01*
X218965Y148410D01*
X218898Y148331D01*
X218826Y148256D01*
X218818Y148238D01*
X218805Y148223D01*
X218766Y148127D01*
X218723Y148033D01*
X218721Y148013D01*
X218713Y147995D01*
X218695Y147828D01*
X218695Y81065D01*
X218706Y80994D01*
X218708Y80923D01*
X218726Y80874D01*
X218734Y80822D01*
X218768Y80759D01*
X218793Y80692D01*
X218825Y80651D01*
X218850Y80605D01*
X218902Y80556D01*
X218946Y80500D01*
X218990Y80471D01*
X219028Y80436D01*
X219093Y80405D01*
X219153Y80367D01*
X219204Y80354D01*
X219251Y80332D01*
X219322Y80324D01*
X219392Y80307D01*
X219444Y80311D01*
X219495Y80305D01*
X219566Y80320D01*
X219637Y80326D01*
X219685Y80346D01*
X219736Y80357D01*
X219797Y80394D01*
X219863Y80422D01*
X219919Y80467D01*
X219947Y80483D01*
X219962Y80501D01*
X219994Y80527D01*
X222272Y82805D01*
X224537Y82805D01*
X224537Y74422D01*
X224540Y74402D01*
X224538Y74383D01*
X224560Y74281D01*
X224577Y74179D01*
X224586Y74162D01*
X224590Y74142D01*
X224643Y74053D01*
X224692Y73962D01*
X224706Y73948D01*
X224716Y73931D01*
X224795Y73864D01*
X224870Y73793D01*
X224888Y73784D01*
X224903Y73771D01*
X224999Y73733D01*
X225093Y73689D01*
X225113Y73687D01*
X225131Y73679D01*
X225298Y73661D01*
X226061Y73661D01*
X226061Y73659D01*
X225298Y73659D01*
X225278Y73656D01*
X225259Y73658D01*
X225157Y73636D01*
X225055Y73619D01*
X225038Y73610D01*
X225018Y73606D01*
X224929Y73553D01*
X224838Y73504D01*
X224824Y73490D01*
X224807Y73480D01*
X224740Y73401D01*
X224669Y73326D01*
X224660Y73308D01*
X224647Y73293D01*
X224608Y73197D01*
X224565Y73103D01*
X224563Y73083D01*
X224555Y73065D01*
X224537Y72898D01*
X224537Y64515D01*
X222272Y64515D01*
X219994Y66793D01*
X219936Y66835D01*
X219884Y66884D01*
X219837Y66906D01*
X219795Y66937D01*
X219726Y66958D01*
X219661Y66988D01*
X219609Y66994D01*
X219559Y67009D01*
X219488Y67007D01*
X219417Y67015D01*
X219366Y67004D01*
X219314Y67003D01*
X219246Y66978D01*
X219176Y66963D01*
X219131Y66936D01*
X219083Y66918D01*
X219027Y66873D01*
X218965Y66837D01*
X218931Y66797D01*
X218891Y66765D01*
X218852Y66704D01*
X218805Y66650D01*
X218786Y66601D01*
X218758Y66558D01*
X218740Y66488D01*
X218713Y66422D01*
X218705Y66350D01*
X218697Y66319D01*
X218699Y66296D01*
X218695Y66255D01*
X218695Y54228D01*
X218706Y54158D01*
X218708Y54086D01*
X218726Y54037D01*
X218734Y53986D01*
X218768Y53922D01*
X218793Y53855D01*
X218825Y53814D01*
X218850Y53768D01*
X218902Y53719D01*
X218946Y53663D01*
X218990Y53635D01*
X219028Y53599D01*
X219093Y53569D01*
X219153Y53530D01*
X219204Y53517D01*
X219251Y53495D01*
X219322Y53487D01*
X219392Y53470D01*
X219444Y53474D01*
X219495Y53468D01*
X219566Y53483D01*
X219637Y53489D01*
X219685Y53509D01*
X219736Y53520D01*
X219797Y53557D01*
X219863Y53585D01*
X219919Y53630D01*
X219947Y53647D01*
X219962Y53664D01*
X219994Y53690D01*
X222693Y56389D01*
X229427Y56389D01*
X233014Y52802D01*
X233088Y52749D01*
X233157Y52689D01*
X233188Y52677D01*
X233214Y52658D01*
X233301Y52631D01*
X233386Y52597D01*
X233427Y52593D01*
X233449Y52586D01*
X233481Y52587D01*
X233552Y52579D01*
X285750Y52579D01*
X285770Y52582D01*
X285789Y52580D01*
X285891Y52602D01*
X285993Y52618D01*
X286010Y52628D01*
X286030Y52632D01*
X286119Y52685D01*
X286210Y52734D01*
X286224Y52748D01*
X286241Y52758D01*
X286308Y52837D01*
X286380Y52912D01*
X286388Y52930D01*
X286401Y52945D01*
X286440Y53041D01*
X286483Y53135D01*
X286485Y53155D01*
X286493Y53173D01*
X286511Y53340D01*
X286511Y54167D01*
X291273Y58929D01*
X298007Y58929D01*
X302769Y54167D01*
X302769Y47433D01*
X298007Y42671D01*
X291273Y42671D01*
X286474Y47470D01*
X286472Y47487D01*
X286462Y47504D01*
X286458Y47524D01*
X286405Y47613D01*
X286356Y47704D01*
X286342Y47718D01*
X286332Y47735D01*
X286253Y47802D01*
X286178Y47874D01*
X286160Y47882D01*
X286145Y47895D01*
X286049Y47934D01*
X285955Y47977D01*
X285935Y47979D01*
X285917Y47987D01*
X285750Y48005D01*
X234950Y48005D01*
X234930Y48002D01*
X234911Y48004D01*
X234809Y47982D01*
X234707Y47966D01*
X234690Y47956D01*
X234670Y47952D01*
X234581Y47899D01*
X234490Y47850D01*
X234476Y47836D01*
X234459Y47826D01*
X234392Y47747D01*
X234320Y47672D01*
X234312Y47654D01*
X234299Y47639D01*
X234260Y47543D01*
X234217Y47449D01*
X234215Y47429D01*
X234207Y47411D01*
X234189Y47244D01*
X234189Y44893D01*
X229427Y40131D01*
X222693Y40131D01*
X217931Y44893D01*
X217931Y45720D01*
X217928Y45740D01*
X217930Y45759D01*
X217908Y45861D01*
X217892Y45963D01*
X217882Y45980D01*
X217878Y46000D01*
X217825Y46089D01*
X217776Y46180D01*
X217762Y46194D01*
X217752Y46211D01*
X217673Y46278D01*
X217598Y46350D01*
X217580Y46358D01*
X217565Y46371D01*
X217469Y46410D01*
X217375Y46453D01*
X217355Y46455D01*
X217337Y46463D01*
X217170Y46481D01*
X193375Y46481D01*
X193260Y46462D01*
X193144Y46445D01*
X193138Y46443D01*
X193132Y46442D01*
X193029Y46387D01*
X192925Y46334D01*
X192920Y46329D01*
X192915Y46326D01*
X192835Y46242D01*
X192752Y46158D01*
X192749Y46152D01*
X192745Y46148D01*
X192738Y46131D01*
X192672Y46011D01*
X191279Y42648D01*
X188492Y39861D01*
X184851Y38353D01*
X180909Y38353D01*
G37*
%LPD*%
%LPC*%
G36*
X364933Y40131D02*
X364933Y40131D01*
X360171Y44893D01*
X360171Y51627D01*
X364774Y56230D01*
X364827Y56304D01*
X364887Y56373D01*
X364899Y56404D01*
X364918Y56430D01*
X364945Y56517D01*
X364979Y56602D01*
X364983Y56643D01*
X364990Y56665D01*
X364989Y56697D01*
X364997Y56768D01*
X364997Y59697D01*
X364983Y59788D01*
X364975Y59878D01*
X364963Y59908D01*
X364958Y59940D01*
X364915Y60021D01*
X364879Y60105D01*
X364853Y60137D01*
X364842Y60158D01*
X364819Y60180D01*
X364774Y60236D01*
X351281Y73729D01*
X351281Y98068D01*
X351262Y98183D01*
X351245Y98299D01*
X351243Y98304D01*
X351242Y98311D01*
X351187Y98413D01*
X351134Y98518D01*
X351129Y98522D01*
X351126Y98528D01*
X351042Y98608D01*
X350958Y98690D01*
X350952Y98694D01*
X350948Y98697D01*
X350931Y98705D01*
X350811Y98771D01*
X348168Y99866D01*
X345738Y102296D01*
X344423Y105470D01*
X344423Y118371D01*
X344409Y118462D01*
X344401Y118552D01*
X344389Y118582D01*
X344384Y118614D01*
X344341Y118695D01*
X344305Y118779D01*
X344279Y118811D01*
X344268Y118832D01*
X344245Y118854D01*
X344200Y118910D01*
X316268Y146842D01*
X316194Y146895D01*
X316124Y146955D01*
X316094Y146967D01*
X316068Y146986D01*
X315981Y147013D01*
X315896Y147047D01*
X315855Y147051D01*
X315833Y147058D01*
X315801Y147057D01*
X315729Y147065D01*
X309626Y147065D01*
X309606Y147062D01*
X309587Y147064D01*
X309485Y147042D01*
X309383Y147026D01*
X309366Y147016D01*
X309346Y147012D01*
X309257Y146959D01*
X309166Y146910D01*
X309152Y146896D01*
X309135Y146886D01*
X309068Y146807D01*
X308996Y146732D01*
X308988Y146714D01*
X308975Y146699D01*
X308936Y146603D01*
X308893Y146509D01*
X308891Y146489D01*
X308883Y146471D01*
X308865Y146304D01*
X308865Y140421D01*
X307473Y137060D01*
X304900Y134487D01*
X301539Y133095D01*
X297901Y133095D01*
X294540Y134487D01*
X291967Y137060D01*
X290575Y140421D01*
X290575Y159299D01*
X291967Y162660D01*
X294540Y165233D01*
X297901Y166625D01*
X301539Y166625D01*
X304900Y165233D01*
X307473Y162660D01*
X308865Y159299D01*
X308865Y152400D01*
X308868Y152380D01*
X308866Y152361D01*
X308888Y152259D01*
X308904Y152157D01*
X308914Y152140D01*
X308918Y152120D01*
X308971Y152031D01*
X309020Y151940D01*
X309034Y151926D01*
X309044Y151909D01*
X309123Y151842D01*
X309198Y151770D01*
X309216Y151762D01*
X309231Y151749D01*
X309327Y151710D01*
X309421Y151667D01*
X309441Y151665D01*
X309459Y151657D01*
X309626Y151639D01*
X317939Y151639D01*
X344211Y125367D01*
X344248Y125340D01*
X344279Y125307D01*
X344347Y125269D01*
X344410Y125224D01*
X344454Y125210D01*
X344495Y125188D01*
X344571Y125174D01*
X344646Y125151D01*
X344691Y125153D01*
X344737Y125144D01*
X344814Y125156D01*
X344891Y125158D01*
X344935Y125173D01*
X344980Y125180D01*
X345049Y125215D01*
X345122Y125242D01*
X345158Y125271D01*
X345199Y125292D01*
X345254Y125347D01*
X345314Y125396D01*
X345339Y125435D01*
X345371Y125467D01*
X345437Y125587D01*
X345447Y125603D01*
X345449Y125608D01*
X345452Y125614D01*
X345738Y126304D01*
X348168Y128734D01*
X351342Y130049D01*
X354778Y130049D01*
X357952Y128734D01*
X360382Y126304D01*
X361697Y123130D01*
X361697Y105470D01*
X360382Y102296D01*
X357952Y99866D01*
X356325Y99192D01*
X356225Y99130D01*
X356125Y99070D01*
X356121Y99066D01*
X356116Y99062D01*
X356041Y98972D01*
X355965Y98884D01*
X355963Y98878D01*
X355959Y98873D01*
X355917Y98764D01*
X355873Y98655D01*
X355872Y98648D01*
X355871Y98643D01*
X355870Y98625D01*
X355855Y98489D01*
X355855Y75939D01*
X355869Y75848D01*
X355877Y75758D01*
X355889Y75728D01*
X355894Y75696D01*
X355937Y75615D01*
X355973Y75531D01*
X355999Y75499D01*
X356010Y75478D01*
X356033Y75456D01*
X356078Y75400D01*
X359118Y72360D01*
X359192Y72307D01*
X359262Y72247D01*
X359292Y72235D01*
X359318Y72216D01*
X359405Y72189D01*
X359490Y72155D01*
X359531Y72151D01*
X359553Y72144D01*
X359585Y72145D01*
X359656Y72137D01*
X366777Y72137D01*
X366777Y65016D01*
X366792Y64926D01*
X366799Y64835D01*
X366811Y64806D01*
X366817Y64774D01*
X366859Y64693D01*
X366895Y64609D01*
X366921Y64577D01*
X366932Y64556D01*
X366955Y64534D01*
X367000Y64478D01*
X369571Y61907D01*
X369571Y57150D01*
X369574Y57130D01*
X369572Y57111D01*
X369594Y57009D01*
X369610Y56907D01*
X369620Y56890D01*
X369624Y56870D01*
X369677Y56781D01*
X369726Y56690D01*
X369740Y56676D01*
X369750Y56659D01*
X369829Y56592D01*
X369904Y56520D01*
X369922Y56512D01*
X369937Y56499D01*
X370033Y56460D01*
X370127Y56417D01*
X370147Y56415D01*
X370165Y56407D01*
X370332Y56389D01*
X371667Y56389D01*
X376429Y51627D01*
X376429Y44893D01*
X371667Y40131D01*
X364933Y40131D01*
G37*
%LPD*%
%LPC*%
G36*
X89722Y70611D02*
X89722Y70611D01*
X86548Y71926D01*
X84118Y74356D01*
X82803Y77530D01*
X82803Y95190D01*
X83093Y95889D01*
X83106Y95946D01*
X83121Y95977D01*
X83127Y96031D01*
X83148Y96116D01*
X83147Y96122D01*
X83149Y96128D01*
X83144Y96184D01*
X83148Y96221D01*
X83135Y96279D01*
X83129Y96361D01*
X83126Y96367D01*
X83126Y96373D01*
X83104Y96422D01*
X83095Y96462D01*
X83062Y96517D01*
X83033Y96587D01*
X83028Y96593D01*
X83026Y96598D01*
X83013Y96612D01*
X82985Y96647D01*
X82969Y96673D01*
X82953Y96687D01*
X82928Y96718D01*
X41215Y138431D01*
X41121Y138498D01*
X41027Y138569D01*
X41021Y138571D01*
X41015Y138574D01*
X40905Y138609D01*
X40793Y138645D01*
X40786Y138645D01*
X40780Y138647D01*
X40664Y138644D01*
X40547Y138643D01*
X40540Y138641D01*
X40535Y138640D01*
X40517Y138634D01*
X40386Y138596D01*
X37531Y137413D01*
X33589Y137413D01*
X29948Y138921D01*
X27161Y141708D01*
X25653Y145349D01*
X25653Y149291D01*
X27161Y152932D01*
X29948Y155719D01*
X33589Y157227D01*
X37531Y157227D01*
X41172Y155719D01*
X42950Y153940D01*
X42966Y153929D01*
X42978Y153913D01*
X43066Y153857D01*
X43150Y153797D01*
X43169Y153791D01*
X43185Y153780D01*
X43286Y153755D01*
X43385Y153724D01*
X43405Y153725D01*
X43424Y153720D01*
X43527Y153728D01*
X43631Y153731D01*
X43649Y153738D01*
X43669Y153739D01*
X43764Y153780D01*
X43862Y153815D01*
X43877Y153828D01*
X43895Y153836D01*
X44026Y153940D01*
X46991Y156905D01*
X47059Y156999D01*
X47129Y157093D01*
X47131Y157099D01*
X47134Y157104D01*
X47169Y157216D01*
X47205Y157327D01*
X47205Y157334D01*
X47207Y157340D01*
X47204Y157456D01*
X47203Y157573D01*
X47201Y157580D01*
X47200Y157585D01*
X47194Y157603D01*
X47156Y157734D01*
X45973Y160589D01*
X45973Y164531D01*
X47481Y168172D01*
X50268Y170959D01*
X53909Y172467D01*
X57851Y172467D01*
X61492Y170959D01*
X64279Y168172D01*
X65787Y164531D01*
X65787Y160589D01*
X64279Y156948D01*
X61492Y154161D01*
X57851Y152653D01*
X53909Y152653D01*
X51054Y153836D01*
X50941Y153863D01*
X50827Y153891D01*
X50821Y153891D01*
X50815Y153892D01*
X50698Y153881D01*
X50582Y153872D01*
X50576Y153870D01*
X50570Y153869D01*
X50462Y153821D01*
X50356Y153776D01*
X50350Y153771D01*
X50345Y153769D01*
X50332Y153756D01*
X50225Y153671D01*
X45690Y149136D01*
X45637Y149062D01*
X45577Y148992D01*
X45565Y148962D01*
X45546Y148936D01*
X45519Y148849D01*
X45485Y148764D01*
X45481Y148723D01*
X45474Y148701D01*
X45475Y148669D01*
X45467Y148597D01*
X45467Y145349D01*
X44284Y142494D01*
X44257Y142381D01*
X44229Y142267D01*
X44229Y142261D01*
X44228Y142255D01*
X44239Y142137D01*
X44248Y142022D01*
X44250Y142016D01*
X44251Y142010D01*
X44299Y141902D01*
X44344Y141796D01*
X44349Y141790D01*
X44351Y141785D01*
X44364Y141772D01*
X44449Y141665D01*
X85396Y100718D01*
X85412Y100707D01*
X85424Y100691D01*
X85511Y100635D01*
X85595Y100575D01*
X85614Y100569D01*
X85631Y100558D01*
X85732Y100533D01*
X85830Y100502D01*
X85850Y100503D01*
X85870Y100498D01*
X85973Y100506D01*
X86076Y100509D01*
X86095Y100516D01*
X86115Y100517D01*
X86210Y100558D01*
X86307Y100593D01*
X86323Y100606D01*
X86341Y100614D01*
X86472Y100718D01*
X86548Y100794D01*
X89722Y102109D01*
X93158Y102109D01*
X96332Y100794D01*
X98762Y98364D01*
X100077Y95190D01*
X100077Y77530D01*
X98762Y74356D01*
X96332Y71926D01*
X93158Y70611D01*
X89722Y70611D01*
G37*
%LPD*%
%LPC*%
G36*
X275843Y151383D02*
X275843Y151383D01*
X275843Y167526D01*
X276699Y167391D01*
X278220Y166896D01*
X279645Y166170D01*
X280939Y165230D01*
X282070Y164099D01*
X283010Y162805D01*
X283736Y161380D01*
X284231Y159859D01*
X284481Y158280D01*
X284481Y151383D01*
X275843Y151383D01*
G37*
%LPD*%
%LPC*%
G36*
X275843Y148337D02*
X275843Y148337D01*
X284481Y148337D01*
X284481Y141440D01*
X284231Y139861D01*
X283736Y138340D01*
X283010Y136915D01*
X282070Y135621D01*
X280939Y134490D01*
X279645Y133550D01*
X278220Y132824D01*
X276699Y132329D01*
X275843Y132194D01*
X275843Y148337D01*
G37*
%LPD*%
%LPC*%
G36*
X264159Y151383D02*
X264159Y151383D01*
X264159Y158280D01*
X264409Y159859D01*
X264904Y161380D01*
X265630Y162805D01*
X266570Y164099D01*
X267701Y165230D01*
X268995Y166170D01*
X270420Y166896D01*
X271941Y167391D01*
X272797Y167526D01*
X272797Y151383D01*
X264159Y151383D01*
G37*
%LPD*%
%LPC*%
G36*
X271941Y132329D02*
X271941Y132329D01*
X270420Y132824D01*
X268995Y133550D01*
X267701Y134490D01*
X266570Y135621D01*
X265630Y136915D01*
X264904Y138340D01*
X264409Y139861D01*
X264159Y141440D01*
X264159Y148337D01*
X272797Y148337D01*
X272797Y132194D01*
X271941Y132329D01*
G37*
%LPD*%
%LPC*%
G36*
X379983Y115823D02*
X379983Y115823D01*
X379983Y130944D01*
X380720Y130827D01*
X382165Y130358D01*
X383519Y129668D01*
X384748Y128775D01*
X385823Y127700D01*
X386716Y126471D01*
X387406Y125117D01*
X387875Y123672D01*
X388113Y122172D01*
X388113Y115823D01*
X379983Y115823D01*
G37*
%LPD*%
%LPC*%
G36*
X379983Y112777D02*
X379983Y112777D01*
X388113Y112777D01*
X388113Y106428D01*
X387875Y104928D01*
X387406Y103483D01*
X386716Y102129D01*
X385823Y100900D01*
X384748Y99825D01*
X383519Y98932D01*
X382165Y98242D01*
X380720Y97773D01*
X379983Y97656D01*
X379983Y112777D01*
G37*
%LPD*%
%LPC*%
G36*
X368807Y115823D02*
X368807Y115823D01*
X368807Y122172D01*
X369045Y123672D01*
X369514Y125117D01*
X370204Y126471D01*
X371097Y127700D01*
X372172Y128775D01*
X373401Y129668D01*
X374755Y130358D01*
X376200Y130827D01*
X376937Y130944D01*
X376937Y115823D01*
X368807Y115823D01*
G37*
%LPD*%
%LPC*%
G36*
X376200Y97773D02*
X376200Y97773D01*
X374755Y98242D01*
X373401Y98932D01*
X372172Y99825D01*
X371097Y100900D01*
X370204Y102129D01*
X369514Y103483D01*
X369045Y104928D01*
X368807Y106428D01*
X368807Y112777D01*
X376937Y112777D01*
X376937Y97656D01*
X376200Y97773D01*
G37*
%LPD*%
%LPC*%
G36*
X62483Y32003D02*
X62483Y32003D01*
X62483Y41298D01*
X63518Y41134D01*
X65153Y40602D01*
X66685Y39822D01*
X68076Y38811D01*
X69291Y37596D01*
X70302Y36205D01*
X71082Y34673D01*
X71614Y33038D01*
X71778Y32003D01*
X62483Y32003D01*
G37*
%LPD*%
%LPC*%
G36*
X184403Y148337D02*
X184403Y148337D01*
X193698Y148337D01*
X193534Y147302D01*
X193002Y145667D01*
X192222Y144135D01*
X191211Y142744D01*
X189996Y141529D01*
X188605Y140518D01*
X187073Y139738D01*
X185438Y139206D01*
X184403Y139042D01*
X184403Y148337D01*
G37*
%LPD*%
%LPC*%
G36*
X50142Y32003D02*
X50142Y32003D01*
X50306Y33038D01*
X50838Y34673D01*
X51618Y36205D01*
X52629Y37596D01*
X53844Y38811D01*
X55235Y39822D01*
X56767Y40602D01*
X58402Y41134D01*
X59437Y41298D01*
X59437Y32003D01*
X50142Y32003D01*
G37*
%LPD*%
%LPC*%
G36*
X62483Y28957D02*
X62483Y28957D01*
X71778Y28957D01*
X71614Y27922D01*
X71082Y26287D01*
X70302Y24755D01*
X69291Y23364D01*
X68076Y22149D01*
X66685Y21138D01*
X65153Y20358D01*
X63518Y19826D01*
X62483Y19662D01*
X62483Y28957D01*
G37*
%LPD*%
%LPC*%
G36*
X180322Y139206D02*
X180322Y139206D01*
X178687Y139738D01*
X177155Y140518D01*
X175764Y141529D01*
X174549Y142744D01*
X173538Y144135D01*
X172758Y145667D01*
X172226Y147302D01*
X172062Y148337D01*
X181357Y148337D01*
X181357Y139042D01*
X180322Y139206D01*
G37*
%LPD*%
%LPC*%
G36*
X58402Y19826D02*
X58402Y19826D01*
X56767Y20358D01*
X55235Y21138D01*
X53844Y22149D01*
X52629Y23364D01*
X51618Y24755D01*
X50838Y26287D01*
X50306Y27922D01*
X50142Y28957D01*
X59437Y28957D01*
X59437Y19662D01*
X58402Y19826D01*
G37*
%LPD*%
%LPC*%
G36*
X296163Y77723D02*
X296163Y77723D01*
X296163Y85345D01*
X298428Y85345D01*
X303785Y79988D01*
X303785Y77723D01*
X296163Y77723D01*
G37*
%LPD*%
%LPC*%
G36*
X227583Y75183D02*
X227583Y75183D01*
X227583Y82805D01*
X229848Y82805D01*
X235205Y77448D01*
X235205Y75183D01*
X227583Y75183D01*
G37*
%LPD*%
%LPC*%
G36*
X369823Y75183D02*
X369823Y75183D01*
X369823Y82805D01*
X372088Y82805D01*
X377445Y77448D01*
X377445Y75183D01*
X369823Y75183D01*
G37*
%LPD*%
%LPC*%
G36*
X285495Y77723D02*
X285495Y77723D01*
X285495Y79988D01*
X290852Y85345D01*
X293117Y85345D01*
X293117Y77723D01*
X285495Y77723D01*
G37*
%LPD*%
%LPC*%
G36*
X359155Y75183D02*
X359155Y75183D01*
X359155Y77448D01*
X364512Y82805D01*
X366777Y82805D01*
X366777Y75183D01*
X359155Y75183D01*
G37*
%LPD*%
%LPC*%
G36*
X296163Y67055D02*
X296163Y67055D01*
X296163Y74677D01*
X303785Y74677D01*
X303785Y72412D01*
X298428Y67055D01*
X296163Y67055D01*
G37*
%LPD*%
%LPC*%
G36*
X369823Y64515D02*
X369823Y64515D01*
X369823Y72137D01*
X377445Y72137D01*
X377445Y69872D01*
X372088Y64515D01*
X369823Y64515D01*
G37*
%LPD*%
%LPC*%
G36*
X227583Y64515D02*
X227583Y64515D01*
X227583Y72137D01*
X235205Y72137D01*
X235205Y69872D01*
X229848Y64515D01*
X227583Y64515D01*
G37*
%LPD*%
%LPC*%
G36*
X290852Y67055D02*
X290852Y67055D01*
X285495Y72412D01*
X285495Y74677D01*
X293117Y74677D01*
X293117Y67055D01*
X290852Y67055D01*
G37*
%LPD*%
%LPC*%
G36*
X274319Y149859D02*
X274319Y149859D01*
X274319Y149861D01*
X274321Y149861D01*
X274321Y149859D01*
X274319Y149859D01*
G37*
%LPD*%
%LPC*%
G36*
X378459Y114299D02*
X378459Y114299D01*
X378459Y114301D01*
X378461Y114301D01*
X378461Y114299D01*
X378459Y114299D01*
G37*
%LPD*%
%LPC*%
G36*
X294639Y76199D02*
X294639Y76199D01*
X294639Y76201D01*
X294641Y76201D01*
X294641Y76199D01*
X294639Y76199D01*
G37*
%LPD*%
%LPC*%
G36*
X368299Y73659D02*
X368299Y73659D01*
X368299Y73661D01*
X368301Y73661D01*
X368301Y73659D01*
X368299Y73659D01*
G37*
%LPD*%
%LPC*%
G36*
X60959Y30479D02*
X60959Y30479D01*
X60959Y30481D01*
X60961Y30481D01*
X60961Y30479D01*
X60959Y30479D01*
G37*
%LPD*%
D10*
X353060Y107188D02*
X353060Y121412D01*
X378460Y121412D02*
X378460Y107188D01*
D11*
X226060Y48260D03*
X226060Y73660D03*
X294640Y50800D03*
X294640Y76200D03*
X368300Y48260D03*
X368300Y73660D03*
D12*
X55880Y162560D03*
X157480Y162560D03*
X182880Y48260D03*
X182880Y149860D03*
X60960Y30480D03*
X162560Y30480D03*
X35560Y45720D03*
X35560Y147320D03*
D13*
X248920Y142240D02*
X248920Y157480D01*
X274320Y157480D02*
X274320Y142240D01*
X299720Y142240D02*
X299720Y157480D01*
D10*
X91440Y93472D02*
X91440Y79248D01*
X116840Y79248D02*
X116840Y93472D01*
D14*
X91440Y91440D02*
X91440Y86360D01*
X38100Y144780D02*
X35560Y147320D01*
X38100Y144780D02*
X91440Y91440D01*
X38100Y144780D02*
X55880Y162560D01*
X36576Y146304D02*
X35560Y147320D01*
X117348Y85344D02*
X117348Y74676D01*
X161544Y30480D01*
X117348Y85344D02*
X116840Y86360D01*
X161544Y30480D02*
X162560Y30480D01*
X88392Y45720D02*
X35560Y45720D01*
X88392Y45720D02*
X117348Y74676D01*
X116840Y86360D01*
X198120Y150876D02*
X216408Y150876D01*
X248412Y150876D01*
X198120Y150876D02*
X187452Y161544D01*
X158496Y161544D01*
X248412Y150876D02*
X248920Y149860D01*
X158496Y161544D02*
X157480Y162560D01*
X182880Y48768D02*
X216408Y48768D01*
X225552Y48768D01*
X226060Y48260D01*
X182880Y48260D02*
X182880Y48768D01*
X228600Y50292D02*
X294132Y50292D01*
X228600Y50292D02*
X227076Y48768D01*
X294132Y50292D02*
X294640Y50800D01*
X227076Y48768D02*
X226060Y48260D01*
X216408Y48768D02*
X216408Y150876D01*
X368808Y105156D02*
X368808Y74676D01*
X368808Y105156D02*
X377952Y114300D01*
X368808Y74676D02*
X368300Y73660D01*
X377952Y114300D02*
X378460Y114300D01*
X292608Y74676D02*
X274320Y74676D01*
X227076Y74676D01*
X292608Y74676D02*
X294132Y76200D01*
X227076Y74676D02*
X226060Y73660D01*
X294132Y76200D02*
X294640Y76200D01*
X274320Y74676D02*
X274320Y149860D01*
X367284Y60960D02*
X367284Y48768D01*
X367284Y60960D02*
X353568Y74676D01*
X353568Y114300D01*
X367284Y48768D02*
X368300Y48260D01*
X353568Y114300D02*
X353060Y114300D01*
X316992Y149352D02*
X300228Y149352D01*
X316992Y149352D02*
X352044Y114300D01*
X300228Y149352D02*
X299720Y149860D01*
X352044Y114300D02*
X353060Y114300D01*
M02*
