G04 EAGLE Gerber RS-274X export*
G75*
%MOMM*%
%FSLAX34Y34*%
%LPD*%
%IN*%
%IPPOS*%
%AMOC8*
5,1,8,0,0,1.08239X$1,22.5*%
G01*
%ADD10C,0.254000*%


D10*
X-7620Y0D02*
X453900Y0D01*
X451360Y220880D01*
X-5080Y218340D01*
X-7620Y0D01*
X27780Y197683D02*
X27704Y196814D01*
X27552Y195954D01*
X27326Y195110D01*
X27028Y194290D01*
X26659Y193498D01*
X26222Y192742D01*
X25721Y192027D01*
X25160Y191358D01*
X24542Y190740D01*
X23873Y190179D01*
X23158Y189678D01*
X22402Y189241D01*
X21610Y188872D01*
X20790Y188574D01*
X19946Y188348D01*
X19087Y188196D01*
X18217Y188120D01*
X17343Y188120D01*
X16474Y188196D01*
X15614Y188348D01*
X14770Y188574D01*
X13950Y188872D01*
X13158Y189241D01*
X12402Y189678D01*
X11687Y190179D01*
X11018Y190740D01*
X10400Y191358D01*
X9839Y192027D01*
X9338Y192742D01*
X8901Y193498D01*
X8532Y194290D01*
X8234Y195110D01*
X8008Y195954D01*
X7856Y196814D01*
X7780Y197683D01*
X7780Y198557D01*
X7856Y199427D01*
X8008Y200286D01*
X8234Y201130D01*
X8532Y201950D01*
X8901Y202742D01*
X9338Y203498D01*
X9839Y204213D01*
X10400Y204882D01*
X11018Y205500D01*
X11687Y206061D01*
X12402Y206562D01*
X13158Y206999D01*
X13950Y207368D01*
X14770Y207666D01*
X15614Y207892D01*
X16474Y208044D01*
X17343Y208120D01*
X18217Y208120D01*
X19087Y208044D01*
X19946Y207892D01*
X20790Y207666D01*
X21610Y207368D01*
X22402Y206999D01*
X23158Y206562D01*
X23873Y206061D01*
X24542Y205500D01*
X25160Y204882D01*
X25721Y204213D01*
X26222Y203498D01*
X26659Y202742D01*
X27028Y201950D01*
X27326Y201130D01*
X27552Y200286D01*
X27704Y199427D01*
X27780Y198557D01*
X27780Y197683D01*
X25240Y22423D02*
X25164Y21554D01*
X25012Y20694D01*
X24786Y19850D01*
X24488Y19030D01*
X24119Y18238D01*
X23682Y17482D01*
X23181Y16767D01*
X22620Y16098D01*
X22002Y15480D01*
X21333Y14919D01*
X20618Y14418D01*
X19862Y13981D01*
X19070Y13612D01*
X18250Y13314D01*
X17406Y13088D01*
X16547Y12936D01*
X15677Y12860D01*
X14803Y12860D01*
X13934Y12936D01*
X13074Y13088D01*
X12230Y13314D01*
X11410Y13612D01*
X10618Y13981D01*
X9862Y14418D01*
X9147Y14919D01*
X8478Y15480D01*
X7860Y16098D01*
X7299Y16767D01*
X6798Y17482D01*
X6361Y18238D01*
X5992Y19030D01*
X5694Y19850D01*
X5468Y20694D01*
X5316Y21554D01*
X5240Y22423D01*
X5240Y23297D01*
X5316Y24167D01*
X5468Y25026D01*
X5694Y25870D01*
X5992Y26690D01*
X6361Y27482D01*
X6798Y28238D01*
X7299Y28953D01*
X7860Y29622D01*
X8478Y30240D01*
X9147Y30801D01*
X9862Y31302D01*
X10618Y31739D01*
X11410Y32108D01*
X12230Y32406D01*
X13074Y32632D01*
X13934Y32784D01*
X14803Y32860D01*
X15677Y32860D01*
X16547Y32784D01*
X17406Y32632D01*
X18250Y32406D01*
X19070Y32108D01*
X19862Y31739D01*
X20618Y31302D01*
X21333Y30801D01*
X22002Y30240D01*
X22620Y29622D01*
X23181Y28953D01*
X23682Y28238D01*
X24119Y27482D01*
X24488Y26690D01*
X24786Y25870D01*
X25012Y25026D01*
X25164Y24167D01*
X25240Y23297D01*
X25240Y22423D01*
X421480Y192603D02*
X421404Y191734D01*
X421252Y190874D01*
X421026Y190030D01*
X420728Y189210D01*
X420359Y188418D01*
X419922Y187662D01*
X419421Y186947D01*
X418860Y186278D01*
X418242Y185660D01*
X417573Y185099D01*
X416858Y184598D01*
X416102Y184161D01*
X415310Y183792D01*
X414490Y183494D01*
X413646Y183268D01*
X412787Y183116D01*
X411917Y183040D01*
X411043Y183040D01*
X410174Y183116D01*
X409314Y183268D01*
X408470Y183494D01*
X407650Y183792D01*
X406858Y184161D01*
X406102Y184598D01*
X405387Y185099D01*
X404718Y185660D01*
X404100Y186278D01*
X403539Y186947D01*
X403038Y187662D01*
X402601Y188418D01*
X402232Y189210D01*
X401934Y190030D01*
X401708Y190874D01*
X401556Y191734D01*
X401480Y192603D01*
X401480Y193477D01*
X401556Y194347D01*
X401708Y195206D01*
X401934Y196050D01*
X402232Y196870D01*
X402601Y197662D01*
X403038Y198418D01*
X403539Y199133D01*
X404100Y199802D01*
X404718Y200420D01*
X405387Y200981D01*
X406102Y201482D01*
X406858Y201919D01*
X407650Y202288D01*
X408470Y202586D01*
X409314Y202812D01*
X410174Y202964D01*
X411043Y203040D01*
X411917Y203040D01*
X412787Y202964D01*
X413646Y202812D01*
X414490Y202586D01*
X415310Y202288D01*
X416102Y201919D01*
X416858Y201482D01*
X417573Y200981D01*
X418242Y200420D01*
X418860Y199802D01*
X419421Y199133D01*
X419922Y198418D01*
X420359Y197662D01*
X420728Y196870D01*
X421026Y196050D01*
X421252Y195206D01*
X421404Y194347D01*
X421480Y193477D01*
X421480Y192603D01*
X429100Y27503D02*
X429024Y26634D01*
X428872Y25774D01*
X428646Y24930D01*
X428348Y24110D01*
X427979Y23318D01*
X427542Y22562D01*
X427041Y21847D01*
X426480Y21178D01*
X425862Y20560D01*
X425193Y19999D01*
X424478Y19498D01*
X423722Y19061D01*
X422930Y18692D01*
X422110Y18394D01*
X421266Y18168D01*
X420407Y18016D01*
X419537Y17940D01*
X418663Y17940D01*
X417794Y18016D01*
X416934Y18168D01*
X416090Y18394D01*
X415270Y18692D01*
X414478Y19061D01*
X413722Y19498D01*
X413007Y19999D01*
X412338Y20560D01*
X411720Y21178D01*
X411159Y21847D01*
X410658Y22562D01*
X410221Y23318D01*
X409852Y24110D01*
X409554Y24930D01*
X409328Y25774D01*
X409176Y26634D01*
X409100Y27503D01*
X409100Y28377D01*
X409176Y29247D01*
X409328Y30106D01*
X409554Y30950D01*
X409852Y31770D01*
X410221Y32562D01*
X410658Y33318D01*
X411159Y34033D01*
X411720Y34702D01*
X412338Y35320D01*
X413007Y35881D01*
X413722Y36382D01*
X414478Y36819D01*
X415270Y37188D01*
X416090Y37486D01*
X416934Y37712D01*
X417794Y37864D01*
X418663Y37940D01*
X419537Y37940D01*
X420407Y37864D01*
X421266Y37712D01*
X422110Y37486D01*
X422930Y37188D01*
X423722Y36819D01*
X424478Y36382D01*
X425193Y35881D01*
X425862Y35320D01*
X426480Y34702D01*
X427041Y34033D01*
X427542Y33318D01*
X427979Y32562D01*
X428348Y31770D01*
X428646Y30950D01*
X428872Y30106D01*
X429024Y29247D01*
X429100Y28377D01*
X429100Y27503D01*
M02*
