G04 EAGLE Gerber RS-274X export*
G75*
%MOMM*%
%FSLAX34Y34*%
%LPD*%
%INSilkscreen Top*%
%IPPOS*%
%AMOC8*
5,1,8,0,0,1.08239X$1,22.5*%
G01*
%ADD10C,0.152400*%
%ADD11C,0.127000*%
%ADD12C,0.304800*%
%ADD13C,0.254000*%
%ADD14R,0.508000X2.540000*%
%ADD15R,1.905000X0.762000*%
%ADD16R,2.540000X0.508000*%
%ADD17R,0.762000X1.905000*%
%ADD18R,10.668000X0.762000*%
%ADD19R,1.905000X0.508000*%
%ADD20R,0.762000X0.508000*%


D10*
X145542Y198882D02*
X150961Y215138D01*
X156379Y198882D01*
X155025Y202946D02*
X146897Y202946D01*
X161416Y209719D02*
X165029Y198882D01*
X168641Y209719D01*
X174407Y209719D02*
X174407Y198882D01*
X173956Y214235D02*
X173956Y215138D01*
X174859Y215138D01*
X174859Y214235D01*
X173956Y214235D01*
X181216Y209719D02*
X181216Y198882D01*
X181216Y209719D02*
X185731Y209719D01*
X185835Y209717D01*
X185938Y209711D01*
X186042Y209701D01*
X186145Y209687D01*
X186247Y209669D01*
X186348Y209648D01*
X186449Y209622D01*
X186548Y209593D01*
X186647Y209560D01*
X186744Y209523D01*
X186839Y209482D01*
X186933Y209438D01*
X187025Y209390D01*
X187115Y209339D01*
X187204Y209284D01*
X187290Y209226D01*
X187373Y209164D01*
X187455Y209100D01*
X187533Y209032D01*
X187609Y208962D01*
X187683Y208889D01*
X187753Y208812D01*
X187821Y208734D01*
X187885Y208652D01*
X187947Y208569D01*
X188005Y208483D01*
X188060Y208394D01*
X188111Y208304D01*
X188159Y208212D01*
X188203Y208118D01*
X188244Y208023D01*
X188281Y207926D01*
X188314Y207827D01*
X188343Y207728D01*
X188369Y207627D01*
X188390Y207526D01*
X188408Y207424D01*
X188422Y207321D01*
X188432Y207217D01*
X188438Y207114D01*
X188440Y207010D01*
X188441Y207010D02*
X188441Y198882D01*
X198372Y205204D02*
X202436Y205204D01*
X198372Y205204D02*
X198260Y205202D01*
X198149Y205196D01*
X198038Y205186D01*
X197927Y205173D01*
X197817Y205155D01*
X197708Y205133D01*
X197599Y205108D01*
X197491Y205079D01*
X197385Y205046D01*
X197279Y205009D01*
X197175Y204969D01*
X197073Y204925D01*
X196972Y204877D01*
X196873Y204826D01*
X196775Y204771D01*
X196680Y204713D01*
X196587Y204652D01*
X196496Y204587D01*
X196407Y204519D01*
X196321Y204448D01*
X196238Y204375D01*
X196157Y204298D01*
X196078Y204218D01*
X196003Y204136D01*
X195931Y204051D01*
X195861Y203964D01*
X195795Y203874D01*
X195732Y203782D01*
X195672Y203687D01*
X195616Y203591D01*
X195563Y203493D01*
X195514Y203393D01*
X195468Y203291D01*
X195426Y203188D01*
X195387Y203083D01*
X195352Y202977D01*
X195321Y202870D01*
X195294Y202762D01*
X195270Y202653D01*
X195251Y202543D01*
X195235Y202433D01*
X195223Y202322D01*
X195215Y202210D01*
X195211Y202099D01*
X195211Y201987D01*
X195215Y201876D01*
X195223Y201764D01*
X195235Y201653D01*
X195251Y201543D01*
X195270Y201433D01*
X195294Y201324D01*
X195321Y201216D01*
X195352Y201109D01*
X195387Y201003D01*
X195426Y200898D01*
X195468Y200795D01*
X195514Y200693D01*
X195563Y200593D01*
X195616Y200495D01*
X195672Y200399D01*
X195732Y200304D01*
X195795Y200212D01*
X195861Y200122D01*
X195931Y200035D01*
X196003Y199950D01*
X196078Y199868D01*
X196157Y199788D01*
X196238Y199711D01*
X196321Y199638D01*
X196407Y199567D01*
X196496Y199499D01*
X196587Y199434D01*
X196680Y199373D01*
X196775Y199315D01*
X196873Y199260D01*
X196972Y199209D01*
X197073Y199161D01*
X197175Y199117D01*
X197279Y199077D01*
X197385Y199040D01*
X197491Y199007D01*
X197599Y198978D01*
X197708Y198953D01*
X197817Y198931D01*
X197927Y198913D01*
X198038Y198900D01*
X198149Y198890D01*
X198260Y198884D01*
X198372Y198882D01*
X202436Y198882D01*
X202436Y207010D01*
X202435Y207010D02*
X202433Y207111D01*
X202427Y207212D01*
X202418Y207313D01*
X202405Y207414D01*
X202388Y207514D01*
X202367Y207613D01*
X202343Y207711D01*
X202315Y207808D01*
X202283Y207905D01*
X202248Y208000D01*
X202209Y208093D01*
X202167Y208185D01*
X202121Y208276D01*
X202072Y208365D01*
X202020Y208451D01*
X201964Y208536D01*
X201906Y208619D01*
X201844Y208699D01*
X201779Y208777D01*
X201712Y208853D01*
X201642Y208926D01*
X201569Y208996D01*
X201493Y209063D01*
X201415Y209128D01*
X201335Y209190D01*
X201252Y209248D01*
X201167Y209304D01*
X201081Y209356D01*
X200992Y209405D01*
X200901Y209451D01*
X200809Y209493D01*
X200716Y209532D01*
X200621Y209567D01*
X200524Y209599D01*
X200427Y209627D01*
X200329Y209651D01*
X200230Y209672D01*
X200130Y209689D01*
X200029Y209702D01*
X199928Y209711D01*
X199827Y209717D01*
X199726Y209719D01*
X196114Y209719D01*
X210707Y205204D02*
X215222Y203398D01*
X210706Y205204D02*
X210618Y205241D01*
X210532Y205282D01*
X210447Y205326D01*
X210364Y205374D01*
X210284Y205425D01*
X210205Y205479D01*
X210129Y205537D01*
X210055Y205597D01*
X209983Y205661D01*
X209915Y205727D01*
X209849Y205797D01*
X209786Y205868D01*
X209725Y205943D01*
X209668Y206019D01*
X209615Y206098D01*
X209564Y206179D01*
X209517Y206262D01*
X209473Y206347D01*
X209433Y206434D01*
X209396Y206522D01*
X209363Y206612D01*
X209333Y206703D01*
X209308Y206795D01*
X209286Y206888D01*
X209268Y206982D01*
X209253Y207076D01*
X209243Y207171D01*
X209237Y207267D01*
X209234Y207362D01*
X209235Y207458D01*
X209241Y207553D01*
X209250Y207649D01*
X209263Y207743D01*
X209279Y207837D01*
X209300Y207931D01*
X209325Y208023D01*
X209353Y208114D01*
X209385Y208204D01*
X209420Y208293D01*
X209459Y208380D01*
X209502Y208466D01*
X209548Y208550D01*
X209598Y208631D01*
X209650Y208711D01*
X209706Y208789D01*
X209766Y208864D01*
X209828Y208936D01*
X209893Y209006D01*
X209961Y209074D01*
X210031Y209138D01*
X210104Y209200D01*
X210180Y209258D01*
X210258Y209314D01*
X210338Y209366D01*
X210420Y209415D01*
X210504Y209460D01*
X210590Y209502D01*
X210677Y209541D01*
X210766Y209576D01*
X210857Y209607D01*
X210948Y209634D01*
X211041Y209658D01*
X211134Y209678D01*
X211228Y209694D01*
X211323Y209706D01*
X211418Y209715D01*
X211514Y209719D01*
X211609Y209720D01*
X211856Y209713D01*
X212102Y209701D01*
X212348Y209683D01*
X212594Y209658D01*
X212838Y209628D01*
X213082Y209592D01*
X213325Y209551D01*
X213567Y209503D01*
X213808Y209449D01*
X214047Y209390D01*
X214285Y209325D01*
X214521Y209254D01*
X214756Y209178D01*
X214989Y209096D01*
X215219Y209008D01*
X215447Y208915D01*
X215674Y208817D01*
X215223Y203397D02*
X215311Y203360D01*
X215397Y203319D01*
X215482Y203275D01*
X215565Y203227D01*
X215645Y203176D01*
X215724Y203122D01*
X215800Y203064D01*
X215874Y203004D01*
X215946Y202940D01*
X216014Y202874D01*
X216080Y202804D01*
X216143Y202733D01*
X216204Y202658D01*
X216261Y202582D01*
X216314Y202503D01*
X216365Y202422D01*
X216412Y202339D01*
X216456Y202254D01*
X216496Y202167D01*
X216533Y202079D01*
X216566Y201989D01*
X216596Y201898D01*
X216621Y201806D01*
X216643Y201713D01*
X216661Y201619D01*
X216676Y201525D01*
X216686Y201430D01*
X216692Y201334D01*
X216695Y201239D01*
X216694Y201143D01*
X216688Y201048D01*
X216679Y200952D01*
X216666Y200858D01*
X216650Y200764D01*
X216629Y200670D01*
X216604Y200578D01*
X216576Y200487D01*
X216544Y200397D01*
X216509Y200308D01*
X216470Y200221D01*
X216427Y200135D01*
X216381Y200051D01*
X216331Y199970D01*
X216279Y199890D01*
X216223Y199812D01*
X216163Y199737D01*
X216101Y199665D01*
X216036Y199595D01*
X215968Y199527D01*
X215898Y199463D01*
X215825Y199401D01*
X215749Y199343D01*
X215671Y199287D01*
X215591Y199235D01*
X215509Y199186D01*
X215425Y199141D01*
X215339Y199099D01*
X215252Y199060D01*
X215163Y199025D01*
X215072Y198994D01*
X214981Y198967D01*
X214888Y198943D01*
X214795Y198923D01*
X214701Y198907D01*
X214606Y198895D01*
X214511Y198886D01*
X214415Y198882D01*
X214320Y198881D01*
X214319Y198882D02*
X213957Y198891D01*
X213595Y198909D01*
X213234Y198936D01*
X212874Y198971D01*
X212514Y199014D01*
X212155Y199066D01*
X211798Y199127D01*
X211443Y199196D01*
X211089Y199273D01*
X210737Y199359D01*
X210387Y199453D01*
X210039Y199556D01*
X209694Y199666D01*
X209352Y199785D01*
X223420Y198882D02*
X223420Y215138D01*
X223420Y209719D02*
X227936Y209719D01*
X228040Y209717D01*
X228143Y209711D01*
X228247Y209701D01*
X228350Y209687D01*
X228452Y209669D01*
X228553Y209648D01*
X228654Y209622D01*
X228753Y209593D01*
X228852Y209560D01*
X228949Y209523D01*
X229044Y209482D01*
X229138Y209438D01*
X229230Y209390D01*
X229320Y209339D01*
X229409Y209284D01*
X229495Y209226D01*
X229578Y209164D01*
X229660Y209100D01*
X229738Y209032D01*
X229814Y208962D01*
X229888Y208889D01*
X229958Y208812D01*
X230026Y208734D01*
X230090Y208652D01*
X230152Y208569D01*
X230210Y208483D01*
X230265Y208394D01*
X230316Y208304D01*
X230364Y208212D01*
X230408Y208118D01*
X230449Y208023D01*
X230486Y207926D01*
X230519Y207827D01*
X230548Y207728D01*
X230574Y207627D01*
X230595Y207526D01*
X230613Y207424D01*
X230627Y207321D01*
X230637Y207217D01*
X230643Y207114D01*
X230645Y207010D01*
X230645Y198882D01*
X245061Y198882D02*
X250479Y215138D01*
X255898Y198882D01*
X254543Y202946D02*
X246415Y202946D01*
X266493Y198882D02*
X266611Y198884D01*
X266729Y198890D01*
X266847Y198899D01*
X266964Y198913D01*
X267081Y198930D01*
X267198Y198951D01*
X267313Y198976D01*
X267428Y199005D01*
X267542Y199038D01*
X267654Y199074D01*
X267765Y199114D01*
X267875Y199157D01*
X267984Y199204D01*
X268091Y199254D01*
X268196Y199309D01*
X268299Y199366D01*
X268400Y199427D01*
X268500Y199491D01*
X268597Y199558D01*
X268692Y199628D01*
X268784Y199702D01*
X268875Y199778D01*
X268962Y199858D01*
X269047Y199940D01*
X269129Y200025D01*
X269209Y200112D01*
X269285Y200203D01*
X269359Y200295D01*
X269429Y200390D01*
X269496Y200487D01*
X269560Y200587D01*
X269621Y200688D01*
X269678Y200791D01*
X269733Y200896D01*
X269783Y201003D01*
X269830Y201112D01*
X269873Y201222D01*
X269913Y201333D01*
X269949Y201445D01*
X269982Y201559D01*
X270011Y201674D01*
X270036Y201789D01*
X270057Y201906D01*
X270074Y202023D01*
X270088Y202140D01*
X270097Y202258D01*
X270103Y202376D01*
X270105Y202494D01*
X266493Y198882D02*
X266310Y198884D01*
X266128Y198891D01*
X265946Y198902D01*
X265764Y198917D01*
X265582Y198937D01*
X265401Y198960D01*
X265221Y198989D01*
X265041Y199021D01*
X264862Y199058D01*
X264685Y199099D01*
X264508Y199145D01*
X264332Y199194D01*
X264158Y199248D01*
X263984Y199306D01*
X263813Y199368D01*
X263643Y199434D01*
X263474Y199505D01*
X263307Y199579D01*
X263142Y199657D01*
X262979Y199739D01*
X262818Y199825D01*
X262659Y199915D01*
X262502Y200009D01*
X262348Y200106D01*
X262196Y200207D01*
X262046Y200312D01*
X261899Y200420D01*
X261755Y200531D01*
X261613Y200646D01*
X261474Y200765D01*
X261338Y200887D01*
X261205Y201012D01*
X261075Y201140D01*
X261526Y211526D02*
X261528Y211644D01*
X261534Y211762D01*
X261543Y211880D01*
X261557Y211997D01*
X261574Y212114D01*
X261595Y212231D01*
X261620Y212346D01*
X261649Y212461D01*
X261682Y212575D01*
X261718Y212687D01*
X261758Y212798D01*
X261801Y212908D01*
X261848Y213017D01*
X261898Y213124D01*
X261953Y213229D01*
X262010Y213332D01*
X262071Y213433D01*
X262135Y213533D01*
X262202Y213630D01*
X262272Y213725D01*
X262346Y213817D01*
X262422Y213908D01*
X262502Y213995D01*
X262584Y214080D01*
X262669Y214162D01*
X262756Y214242D01*
X262847Y214318D01*
X262939Y214392D01*
X263034Y214462D01*
X263131Y214529D01*
X263231Y214593D01*
X263332Y214654D01*
X263435Y214712D01*
X263540Y214766D01*
X263647Y214816D01*
X263756Y214863D01*
X263866Y214907D01*
X263977Y214946D01*
X264090Y214982D01*
X264203Y215015D01*
X264318Y215044D01*
X264433Y215069D01*
X264550Y215090D01*
X264667Y215107D01*
X264784Y215121D01*
X264902Y215130D01*
X265020Y215136D01*
X265138Y215138D01*
X265299Y215136D01*
X265461Y215130D01*
X265622Y215121D01*
X265783Y215107D01*
X265943Y215090D01*
X266103Y215069D01*
X266263Y215044D01*
X266422Y215015D01*
X266580Y214983D01*
X266737Y214947D01*
X266893Y214907D01*
X267049Y214863D01*
X267203Y214815D01*
X267356Y214764D01*
X267508Y214710D01*
X267659Y214651D01*
X267808Y214590D01*
X267955Y214524D01*
X268101Y214455D01*
X268246Y214383D01*
X268388Y214307D01*
X268529Y214228D01*
X268668Y214146D01*
X268804Y214060D01*
X268939Y213971D01*
X269072Y213879D01*
X269202Y213783D01*
X263331Y208365D02*
X263230Y208427D01*
X263130Y208492D01*
X263033Y208561D01*
X262938Y208633D01*
X262845Y208707D01*
X262755Y208785D01*
X262667Y208866D01*
X262582Y208949D01*
X262500Y209035D01*
X262421Y209124D01*
X262344Y209215D01*
X262271Y209309D01*
X262200Y209405D01*
X262133Y209503D01*
X262069Y209603D01*
X262008Y209706D01*
X261951Y209810D01*
X261897Y209916D01*
X261847Y210024D01*
X261800Y210133D01*
X261756Y210244D01*
X261716Y210356D01*
X261680Y210470D01*
X261648Y210584D01*
X261619Y210700D01*
X261594Y210816D01*
X261573Y210933D01*
X261556Y211051D01*
X261542Y211169D01*
X261533Y211288D01*
X261527Y211407D01*
X261525Y211526D01*
X268299Y205655D02*
X268400Y205593D01*
X268500Y205528D01*
X268597Y205459D01*
X268692Y205387D01*
X268785Y205313D01*
X268875Y205235D01*
X268963Y205154D01*
X269048Y205071D01*
X269130Y204985D01*
X269209Y204896D01*
X269286Y204805D01*
X269359Y204711D01*
X269430Y204615D01*
X269497Y204517D01*
X269561Y204417D01*
X269622Y204314D01*
X269679Y204210D01*
X269733Y204104D01*
X269783Y203996D01*
X269830Y203887D01*
X269874Y203776D01*
X269914Y203664D01*
X269950Y203550D01*
X269982Y203436D01*
X270011Y203320D01*
X270036Y203204D01*
X270057Y203087D01*
X270074Y202969D01*
X270088Y202851D01*
X270097Y202732D01*
X270103Y202613D01*
X270105Y202494D01*
X268299Y205655D02*
X263332Y208365D01*
X276323Y205204D02*
X287160Y205204D01*
X293900Y211526D02*
X298415Y215138D01*
X298415Y198882D01*
X293900Y198882D02*
X302931Y198882D01*
X250021Y10922D02*
X244602Y10922D01*
X250021Y10922D02*
X250139Y10924D01*
X250257Y10930D01*
X250375Y10939D01*
X250492Y10953D01*
X250609Y10970D01*
X250726Y10991D01*
X250841Y11016D01*
X250956Y11045D01*
X251070Y11078D01*
X251182Y11114D01*
X251293Y11154D01*
X251403Y11197D01*
X251512Y11244D01*
X251619Y11294D01*
X251724Y11349D01*
X251827Y11406D01*
X251928Y11467D01*
X252028Y11531D01*
X252125Y11598D01*
X252220Y11668D01*
X252312Y11742D01*
X252403Y11818D01*
X252490Y11898D01*
X252575Y11980D01*
X252657Y12065D01*
X252737Y12152D01*
X252813Y12243D01*
X252887Y12335D01*
X252957Y12430D01*
X253024Y12527D01*
X253088Y12627D01*
X253149Y12728D01*
X253206Y12831D01*
X253261Y12936D01*
X253311Y13043D01*
X253358Y13152D01*
X253401Y13262D01*
X253441Y13373D01*
X253477Y13485D01*
X253510Y13599D01*
X253539Y13714D01*
X253564Y13829D01*
X253585Y13946D01*
X253602Y14063D01*
X253616Y14180D01*
X253625Y14298D01*
X253631Y14416D01*
X253633Y14534D01*
X253633Y16341D01*
X253631Y16459D01*
X253625Y16577D01*
X253616Y16695D01*
X253602Y16812D01*
X253585Y16929D01*
X253564Y17046D01*
X253539Y17161D01*
X253510Y17276D01*
X253477Y17390D01*
X253441Y17502D01*
X253401Y17613D01*
X253358Y17723D01*
X253311Y17832D01*
X253261Y17939D01*
X253206Y18044D01*
X253149Y18147D01*
X253088Y18248D01*
X253024Y18348D01*
X252957Y18445D01*
X252887Y18540D01*
X252813Y18632D01*
X252737Y18723D01*
X252657Y18810D01*
X252575Y18895D01*
X252490Y18977D01*
X252403Y19057D01*
X252312Y19133D01*
X252220Y19207D01*
X252125Y19277D01*
X252028Y19344D01*
X251928Y19408D01*
X251827Y19469D01*
X251724Y19526D01*
X251619Y19581D01*
X251512Y19631D01*
X251403Y19678D01*
X251293Y19721D01*
X251182Y19761D01*
X251070Y19797D01*
X250956Y19830D01*
X250841Y19859D01*
X250726Y19884D01*
X250609Y19905D01*
X250492Y19922D01*
X250375Y19936D01*
X250257Y19945D01*
X250139Y19951D01*
X250021Y19953D01*
X244602Y19953D01*
X244602Y27178D01*
X253633Y27178D01*
X259330Y27178D02*
X264749Y10922D01*
X270167Y27178D01*
X287150Y17244D02*
X291214Y17244D01*
X287150Y17244D02*
X287038Y17242D01*
X286927Y17236D01*
X286816Y17226D01*
X286705Y17213D01*
X286595Y17195D01*
X286486Y17173D01*
X286377Y17148D01*
X286269Y17119D01*
X286163Y17086D01*
X286057Y17049D01*
X285953Y17009D01*
X285851Y16965D01*
X285750Y16917D01*
X285651Y16866D01*
X285553Y16811D01*
X285458Y16753D01*
X285365Y16692D01*
X285274Y16627D01*
X285185Y16559D01*
X285099Y16488D01*
X285016Y16415D01*
X284935Y16338D01*
X284856Y16258D01*
X284781Y16176D01*
X284709Y16091D01*
X284639Y16004D01*
X284573Y15914D01*
X284510Y15822D01*
X284450Y15727D01*
X284394Y15631D01*
X284341Y15533D01*
X284292Y15433D01*
X284246Y15331D01*
X284204Y15228D01*
X284165Y15123D01*
X284130Y15017D01*
X284099Y14910D01*
X284072Y14802D01*
X284048Y14693D01*
X284029Y14583D01*
X284013Y14473D01*
X284001Y14362D01*
X283993Y14250D01*
X283989Y14139D01*
X283989Y14027D01*
X283993Y13916D01*
X284001Y13804D01*
X284013Y13693D01*
X284029Y13583D01*
X284048Y13473D01*
X284072Y13364D01*
X284099Y13256D01*
X284130Y13149D01*
X284165Y13043D01*
X284204Y12938D01*
X284246Y12835D01*
X284292Y12733D01*
X284341Y12633D01*
X284394Y12535D01*
X284450Y12439D01*
X284510Y12344D01*
X284573Y12252D01*
X284639Y12162D01*
X284709Y12075D01*
X284781Y11990D01*
X284856Y11908D01*
X284935Y11828D01*
X285016Y11751D01*
X285099Y11678D01*
X285185Y11607D01*
X285274Y11539D01*
X285365Y11474D01*
X285458Y11413D01*
X285553Y11355D01*
X285651Y11300D01*
X285750Y11249D01*
X285851Y11201D01*
X285953Y11157D01*
X286057Y11117D01*
X286163Y11080D01*
X286269Y11047D01*
X286377Y11018D01*
X286486Y10993D01*
X286595Y10971D01*
X286705Y10953D01*
X286816Y10940D01*
X286927Y10930D01*
X287038Y10924D01*
X287150Y10922D01*
X291214Y10922D01*
X291214Y19050D01*
X291213Y19050D02*
X291211Y19151D01*
X291205Y19252D01*
X291196Y19353D01*
X291183Y19454D01*
X291166Y19554D01*
X291145Y19653D01*
X291121Y19751D01*
X291093Y19848D01*
X291061Y19945D01*
X291026Y20040D01*
X290987Y20133D01*
X290945Y20225D01*
X290899Y20316D01*
X290850Y20405D01*
X290798Y20491D01*
X290742Y20576D01*
X290684Y20659D01*
X290622Y20739D01*
X290557Y20817D01*
X290490Y20893D01*
X290420Y20966D01*
X290347Y21036D01*
X290271Y21103D01*
X290193Y21168D01*
X290113Y21230D01*
X290030Y21288D01*
X289945Y21344D01*
X289859Y21396D01*
X289770Y21445D01*
X289679Y21491D01*
X289587Y21533D01*
X289494Y21572D01*
X289399Y21607D01*
X289302Y21639D01*
X289205Y21667D01*
X289107Y21691D01*
X289008Y21712D01*
X288908Y21729D01*
X288807Y21742D01*
X288706Y21751D01*
X288605Y21757D01*
X288504Y21759D01*
X284892Y21759D01*
X300857Y10922D02*
X304470Y10922D01*
X300857Y10922D02*
X300756Y10924D01*
X300655Y10930D01*
X300554Y10939D01*
X300453Y10952D01*
X300353Y10969D01*
X300254Y10990D01*
X300156Y11014D01*
X300059Y11042D01*
X299962Y11074D01*
X299867Y11109D01*
X299774Y11148D01*
X299682Y11190D01*
X299591Y11236D01*
X299503Y11285D01*
X299416Y11337D01*
X299331Y11393D01*
X299248Y11451D01*
X299168Y11513D01*
X299090Y11578D01*
X299014Y11645D01*
X298941Y11715D01*
X298871Y11788D01*
X298804Y11864D01*
X298739Y11942D01*
X298677Y12022D01*
X298619Y12105D01*
X298563Y12190D01*
X298511Y12276D01*
X298462Y12365D01*
X298416Y12456D01*
X298374Y12548D01*
X298335Y12641D01*
X298300Y12736D01*
X298268Y12833D01*
X298240Y12930D01*
X298216Y13028D01*
X298195Y13127D01*
X298178Y13227D01*
X298165Y13328D01*
X298156Y13429D01*
X298150Y13530D01*
X298148Y13631D01*
X298148Y19050D01*
X298150Y19151D01*
X298156Y19252D01*
X298165Y19353D01*
X298178Y19454D01*
X298195Y19554D01*
X298216Y19653D01*
X298240Y19751D01*
X298268Y19848D01*
X298300Y19945D01*
X298335Y20040D01*
X298374Y20133D01*
X298416Y20225D01*
X298462Y20316D01*
X298511Y20404D01*
X298563Y20491D01*
X298619Y20576D01*
X298677Y20659D01*
X298739Y20739D01*
X298804Y20817D01*
X298871Y20893D01*
X298941Y20966D01*
X299014Y21036D01*
X299090Y21103D01*
X299168Y21168D01*
X299248Y21230D01*
X299331Y21288D01*
X299416Y21344D01*
X299503Y21396D01*
X299591Y21445D01*
X299682Y21491D01*
X299774Y21533D01*
X299867Y21572D01*
X299962Y21607D01*
X300059Y21639D01*
X300156Y21667D01*
X300254Y21691D01*
X300353Y21712D01*
X300453Y21729D01*
X300554Y21742D01*
X300655Y21751D01*
X300756Y21757D01*
X300857Y21759D01*
X304470Y21759D01*
X310392Y17244D02*
X321229Y17244D01*
X334981Y10922D02*
X334981Y27178D01*
X334981Y10922D02*
X330466Y10922D01*
X330365Y10924D01*
X330264Y10930D01*
X330163Y10939D01*
X330062Y10952D01*
X329962Y10969D01*
X329863Y10990D01*
X329765Y11014D01*
X329668Y11042D01*
X329571Y11074D01*
X329476Y11109D01*
X329383Y11148D01*
X329291Y11190D01*
X329200Y11236D01*
X329112Y11285D01*
X329025Y11337D01*
X328940Y11393D01*
X328857Y11451D01*
X328777Y11513D01*
X328699Y11578D01*
X328623Y11645D01*
X328550Y11715D01*
X328480Y11788D01*
X328413Y11864D01*
X328348Y11942D01*
X328286Y12022D01*
X328228Y12105D01*
X328172Y12190D01*
X328120Y12276D01*
X328071Y12365D01*
X328025Y12456D01*
X327983Y12548D01*
X327944Y12641D01*
X327909Y12736D01*
X327877Y12833D01*
X327849Y12930D01*
X327825Y13028D01*
X327804Y13127D01*
X327787Y13227D01*
X327774Y13328D01*
X327765Y13429D01*
X327759Y13530D01*
X327757Y13631D01*
X327756Y13631D02*
X327756Y19050D01*
X327757Y19050D02*
X327759Y19151D01*
X327765Y19252D01*
X327774Y19353D01*
X327787Y19454D01*
X327804Y19554D01*
X327825Y19653D01*
X327849Y19751D01*
X327877Y19848D01*
X327909Y19945D01*
X327944Y20040D01*
X327983Y20133D01*
X328025Y20225D01*
X328071Y20316D01*
X328120Y20404D01*
X328172Y20491D01*
X328228Y20576D01*
X328286Y20659D01*
X328348Y20739D01*
X328413Y20817D01*
X328480Y20893D01*
X328550Y20966D01*
X328623Y21036D01*
X328699Y21103D01*
X328777Y21168D01*
X328857Y21230D01*
X328940Y21288D01*
X329025Y21344D01*
X329112Y21396D01*
X329200Y21445D01*
X329291Y21491D01*
X329383Y21533D01*
X329476Y21572D01*
X329571Y21607D01*
X329668Y21639D01*
X329765Y21667D01*
X329863Y21691D01*
X329962Y21712D01*
X330062Y21729D01*
X330163Y21742D01*
X330264Y21751D01*
X330365Y21757D01*
X330466Y21759D01*
X334981Y21759D01*
X341377Y21759D02*
X344989Y10922D01*
X348601Y21759D01*
X342900Y132080D02*
X342900Y139700D01*
X342900Y132080D02*
X361950Y132080D01*
X363220Y130810D01*
X365760Y128270D01*
X368300Y130810D01*
X369570Y132080D01*
X363220Y92710D02*
X363220Y91440D01*
X342900Y91440D01*
X363220Y92710D02*
X368300Y92710D01*
X368300Y91440D01*
X388620Y91440D01*
X388620Y132080D02*
X369570Y132080D01*
X388620Y132080D02*
X388620Y139700D01*
X342900Y132080D02*
X342900Y99060D01*
X342900Y96520D02*
X342900Y91440D01*
X342900Y96520D02*
X346710Y96520D01*
X388620Y96520D02*
X388620Y91440D01*
X388620Y96520D02*
X384810Y96520D01*
X388620Y99060D02*
X388620Y132080D01*
X384810Y99060D02*
X384810Y96520D01*
X384810Y101600D02*
X372110Y101600D01*
X359410Y99060D02*
X359410Y96520D01*
X346710Y96520D02*
X346710Y99060D01*
X346710Y101600D02*
X359410Y101600D01*
X359410Y96520D02*
X372110Y96520D01*
X359410Y99060D02*
X359410Y101600D01*
X372110Y99060D02*
X372110Y96520D01*
X372110Y99060D02*
X372110Y101600D01*
X372110Y99060D02*
X368300Y99060D01*
X368300Y130810D01*
X363220Y99060D02*
X359410Y99060D01*
X363220Y99060D02*
X368300Y99060D01*
X363220Y99060D02*
X363220Y130810D01*
X384810Y99060D02*
X388620Y99060D01*
X384810Y99060D02*
X384810Y101600D01*
X388620Y99060D02*
X388620Y96520D01*
X346710Y99060D02*
X342900Y99060D01*
X346710Y99060D02*
X346710Y101600D01*
X342900Y99060D02*
X342900Y96520D01*
X342900Y139700D02*
X350520Y139700D01*
X350520Y140970D01*
X355600Y140970D02*
X355600Y139700D01*
X355600Y140970D02*
X350520Y140970D01*
X375920Y140970D02*
X375920Y139700D01*
X381000Y139700D02*
X388620Y139700D01*
X381000Y139700D02*
X381000Y140970D01*
X375920Y140970D01*
X368300Y139700D02*
X368300Y138430D01*
X368300Y139700D02*
X375920Y139700D01*
X368300Y138430D02*
X363220Y138430D01*
X363220Y139700D01*
X355600Y139700D01*
D11*
X348869Y126732D02*
X350788Y124333D01*
X348869Y126732D02*
X357505Y126732D01*
X357505Y124333D02*
X357505Y129131D01*
X332105Y144399D02*
X328295Y144399D01*
X332105Y144399D02*
X332205Y144401D01*
X332304Y144407D01*
X332404Y144417D01*
X332502Y144430D01*
X332601Y144448D01*
X332698Y144469D01*
X332794Y144494D01*
X332890Y144523D01*
X332984Y144556D01*
X333077Y144592D01*
X333168Y144632D01*
X333258Y144676D01*
X333346Y144723D01*
X333432Y144773D01*
X333516Y144827D01*
X333598Y144884D01*
X333677Y144944D01*
X333755Y145008D01*
X333829Y145074D01*
X333901Y145143D01*
X333970Y145215D01*
X334036Y145289D01*
X334100Y145367D01*
X334160Y145446D01*
X334217Y145528D01*
X334271Y145612D01*
X334321Y145698D01*
X334368Y145786D01*
X334412Y145876D01*
X334452Y145967D01*
X334488Y146060D01*
X334521Y146154D01*
X334550Y146250D01*
X334575Y146346D01*
X334596Y146443D01*
X334614Y146542D01*
X334627Y146640D01*
X334637Y146740D01*
X334643Y146839D01*
X334645Y146939D01*
X334645Y148209D01*
X334643Y148309D01*
X334637Y148408D01*
X334627Y148508D01*
X334614Y148606D01*
X334596Y148705D01*
X334575Y148802D01*
X334550Y148898D01*
X334521Y148994D01*
X334488Y149088D01*
X334452Y149181D01*
X334412Y149272D01*
X334368Y149362D01*
X334321Y149450D01*
X334271Y149536D01*
X334217Y149620D01*
X334160Y149702D01*
X334100Y149781D01*
X334036Y149859D01*
X333970Y149933D01*
X333901Y150005D01*
X333829Y150074D01*
X333755Y150140D01*
X333677Y150204D01*
X333598Y150264D01*
X333516Y150321D01*
X333432Y150375D01*
X333346Y150425D01*
X333258Y150472D01*
X333168Y150516D01*
X333077Y150556D01*
X332984Y150592D01*
X332890Y150625D01*
X332794Y150654D01*
X332698Y150679D01*
X332601Y150700D01*
X332502Y150718D01*
X332404Y150731D01*
X332304Y150741D01*
X332205Y150747D01*
X332105Y150749D01*
X328295Y150749D01*
X328295Y155829D01*
X334645Y155829D01*
X339090Y155829D02*
X342900Y144399D01*
X346710Y155829D01*
X351536Y155829D02*
X351536Y144399D01*
X351536Y155829D02*
X354711Y155829D01*
X354822Y155827D01*
X354932Y155821D01*
X355043Y155812D01*
X355153Y155798D01*
X355262Y155781D01*
X355371Y155760D01*
X355479Y155735D01*
X355586Y155706D01*
X355692Y155674D01*
X355797Y155638D01*
X355900Y155598D01*
X356002Y155555D01*
X356103Y155508D01*
X356202Y155457D01*
X356299Y155404D01*
X356393Y155347D01*
X356486Y155286D01*
X356577Y155223D01*
X356666Y155156D01*
X356752Y155086D01*
X356835Y155013D01*
X356917Y154938D01*
X356995Y154860D01*
X357070Y154778D01*
X357143Y154695D01*
X357213Y154609D01*
X357280Y154520D01*
X357343Y154429D01*
X357404Y154336D01*
X357461Y154242D01*
X357514Y154145D01*
X357565Y154046D01*
X357612Y153945D01*
X357655Y153843D01*
X357695Y153740D01*
X357731Y153635D01*
X357763Y153529D01*
X357792Y153422D01*
X357817Y153314D01*
X357838Y153205D01*
X357855Y153096D01*
X357869Y152986D01*
X357878Y152875D01*
X357884Y152765D01*
X357886Y152654D01*
X357886Y147574D01*
X357884Y147463D01*
X357878Y147353D01*
X357869Y147242D01*
X357855Y147132D01*
X357838Y147023D01*
X357817Y146914D01*
X357792Y146806D01*
X357763Y146699D01*
X357731Y146593D01*
X357695Y146488D01*
X357655Y146385D01*
X357612Y146283D01*
X357565Y146182D01*
X357514Y146083D01*
X357461Y145986D01*
X357404Y145892D01*
X357343Y145799D01*
X357280Y145708D01*
X357213Y145619D01*
X357143Y145533D01*
X357070Y145450D01*
X356995Y145368D01*
X356917Y145290D01*
X356835Y145215D01*
X356752Y145142D01*
X356666Y145072D01*
X356577Y145005D01*
X356486Y144942D01*
X356393Y144881D01*
X356299Y144824D01*
X356202Y144771D01*
X356103Y144720D01*
X356002Y144673D01*
X355900Y144630D01*
X355797Y144590D01*
X355692Y144554D01*
X355586Y144522D01*
X355479Y144493D01*
X355371Y144468D01*
X355262Y144447D01*
X355153Y144430D01*
X355043Y144416D01*
X354932Y144407D01*
X354822Y144401D01*
X354711Y144399D01*
X351536Y144399D01*
X365850Y144399D02*
X368390Y144399D01*
X365850Y144399D02*
X365750Y144401D01*
X365651Y144407D01*
X365551Y144417D01*
X365453Y144430D01*
X365354Y144448D01*
X365257Y144469D01*
X365161Y144494D01*
X365065Y144523D01*
X364971Y144556D01*
X364878Y144592D01*
X364787Y144632D01*
X364697Y144676D01*
X364609Y144723D01*
X364523Y144773D01*
X364439Y144827D01*
X364357Y144884D01*
X364278Y144944D01*
X364200Y145008D01*
X364126Y145074D01*
X364054Y145143D01*
X363985Y145215D01*
X363919Y145289D01*
X363855Y145367D01*
X363795Y145446D01*
X363738Y145528D01*
X363684Y145612D01*
X363634Y145698D01*
X363587Y145786D01*
X363543Y145876D01*
X363503Y145967D01*
X363467Y146060D01*
X363434Y146154D01*
X363405Y146250D01*
X363380Y146346D01*
X363359Y146443D01*
X363341Y146542D01*
X363328Y146640D01*
X363318Y146740D01*
X363312Y146839D01*
X363310Y146939D01*
X363310Y153289D01*
X363312Y153389D01*
X363318Y153488D01*
X363328Y153588D01*
X363341Y153686D01*
X363359Y153785D01*
X363380Y153882D01*
X363405Y153978D01*
X363434Y154074D01*
X363467Y154168D01*
X363503Y154261D01*
X363543Y154352D01*
X363587Y154442D01*
X363634Y154530D01*
X363684Y154616D01*
X363738Y154700D01*
X363795Y154782D01*
X363855Y154861D01*
X363919Y154939D01*
X363985Y155013D01*
X364054Y155085D01*
X364126Y155154D01*
X364200Y155220D01*
X364278Y155284D01*
X364357Y155344D01*
X364439Y155401D01*
X364523Y155455D01*
X364609Y155505D01*
X364697Y155552D01*
X364787Y155596D01*
X364878Y155636D01*
X364971Y155672D01*
X365065Y155705D01*
X365161Y155734D01*
X365257Y155759D01*
X365354Y155780D01*
X365453Y155798D01*
X365551Y155811D01*
X365651Y155821D01*
X365750Y155827D01*
X365850Y155829D01*
X368390Y155829D01*
X372999Y148844D02*
X380619Y148844D01*
X385826Y147574D02*
X385826Y152654D01*
X385828Y152765D01*
X385834Y152875D01*
X385843Y152986D01*
X385857Y153096D01*
X385874Y153205D01*
X385895Y153314D01*
X385920Y153422D01*
X385949Y153529D01*
X385981Y153635D01*
X386017Y153740D01*
X386057Y153843D01*
X386100Y153945D01*
X386147Y154046D01*
X386198Y154145D01*
X386251Y154242D01*
X386308Y154336D01*
X386369Y154429D01*
X386432Y154520D01*
X386499Y154609D01*
X386569Y154695D01*
X386642Y154778D01*
X386717Y154860D01*
X386795Y154938D01*
X386877Y155013D01*
X386960Y155086D01*
X387046Y155156D01*
X387135Y155223D01*
X387226Y155286D01*
X387319Y155347D01*
X387414Y155404D01*
X387510Y155457D01*
X387609Y155508D01*
X387710Y155555D01*
X387812Y155598D01*
X387915Y155638D01*
X388020Y155674D01*
X388126Y155706D01*
X388233Y155735D01*
X388341Y155760D01*
X388450Y155781D01*
X388559Y155798D01*
X388669Y155812D01*
X388780Y155821D01*
X388890Y155827D01*
X389001Y155829D01*
X389112Y155827D01*
X389222Y155821D01*
X389333Y155812D01*
X389443Y155798D01*
X389552Y155781D01*
X389661Y155760D01*
X389769Y155735D01*
X389876Y155706D01*
X389982Y155674D01*
X390087Y155638D01*
X390190Y155598D01*
X390292Y155555D01*
X390393Y155508D01*
X390492Y155457D01*
X390589Y155404D01*
X390683Y155347D01*
X390776Y155286D01*
X390867Y155223D01*
X390956Y155156D01*
X391042Y155086D01*
X391125Y155013D01*
X391207Y154938D01*
X391285Y154860D01*
X391360Y154778D01*
X391433Y154695D01*
X391503Y154609D01*
X391570Y154520D01*
X391633Y154429D01*
X391694Y154336D01*
X391751Y154242D01*
X391804Y154145D01*
X391855Y154046D01*
X391902Y153945D01*
X391945Y153843D01*
X391985Y153740D01*
X392021Y153635D01*
X392053Y153529D01*
X392082Y153422D01*
X392107Y153314D01*
X392128Y153205D01*
X392145Y153096D01*
X392159Y152986D01*
X392168Y152875D01*
X392174Y152765D01*
X392176Y152654D01*
X392176Y147574D01*
X392174Y147463D01*
X392168Y147353D01*
X392159Y147242D01*
X392145Y147132D01*
X392128Y147023D01*
X392107Y146914D01*
X392082Y146806D01*
X392053Y146699D01*
X392021Y146593D01*
X391985Y146488D01*
X391945Y146385D01*
X391902Y146283D01*
X391855Y146182D01*
X391804Y146083D01*
X391751Y145986D01*
X391694Y145892D01*
X391633Y145799D01*
X391570Y145708D01*
X391503Y145619D01*
X391433Y145533D01*
X391360Y145450D01*
X391285Y145368D01*
X391207Y145290D01*
X391125Y145215D01*
X391042Y145142D01*
X390956Y145072D01*
X390867Y145005D01*
X390776Y144942D01*
X390683Y144881D01*
X390588Y144824D01*
X390492Y144771D01*
X390393Y144720D01*
X390292Y144673D01*
X390190Y144630D01*
X390087Y144590D01*
X389982Y144554D01*
X389876Y144522D01*
X389769Y144493D01*
X389661Y144468D01*
X389552Y144447D01*
X389443Y144430D01*
X389333Y144416D01*
X389222Y144407D01*
X389112Y144401D01*
X389001Y144399D01*
X388890Y144401D01*
X388780Y144407D01*
X388669Y144416D01*
X388559Y144430D01*
X388450Y144447D01*
X388341Y144468D01*
X388233Y144493D01*
X388126Y144522D01*
X388020Y144554D01*
X387915Y144590D01*
X387812Y144630D01*
X387710Y144673D01*
X387609Y144720D01*
X387510Y144771D01*
X387414Y144824D01*
X387319Y144881D01*
X387226Y144942D01*
X387135Y145005D01*
X387046Y145072D01*
X386960Y145142D01*
X386877Y145215D01*
X386795Y145290D01*
X386717Y145368D01*
X386642Y145450D01*
X386569Y145533D01*
X386499Y145619D01*
X386432Y145708D01*
X386369Y145799D01*
X386308Y145892D01*
X386251Y145987D01*
X386198Y146083D01*
X386147Y146182D01*
X386100Y146283D01*
X386057Y146385D01*
X386017Y146488D01*
X385981Y146593D01*
X385949Y146699D01*
X385920Y146806D01*
X385895Y146914D01*
X385874Y147023D01*
X385857Y147132D01*
X385843Y147242D01*
X385834Y147353D01*
X385828Y147463D01*
X385826Y147574D01*
X397637Y147574D02*
X397637Y155829D01*
X397637Y147574D02*
X397639Y147463D01*
X397645Y147353D01*
X397654Y147242D01*
X397668Y147132D01*
X397685Y147023D01*
X397706Y146914D01*
X397731Y146806D01*
X397760Y146699D01*
X397792Y146593D01*
X397828Y146488D01*
X397868Y146385D01*
X397911Y146283D01*
X397958Y146182D01*
X398009Y146083D01*
X398062Y145987D01*
X398119Y145892D01*
X398180Y145799D01*
X398243Y145708D01*
X398310Y145619D01*
X398380Y145533D01*
X398453Y145450D01*
X398528Y145368D01*
X398606Y145290D01*
X398688Y145215D01*
X398771Y145142D01*
X398857Y145072D01*
X398946Y145005D01*
X399037Y144942D01*
X399130Y144881D01*
X399225Y144824D01*
X399321Y144771D01*
X399420Y144720D01*
X399521Y144673D01*
X399623Y144630D01*
X399726Y144590D01*
X399831Y144554D01*
X399937Y144522D01*
X400044Y144493D01*
X400152Y144468D01*
X400261Y144447D01*
X400370Y144430D01*
X400480Y144416D01*
X400591Y144407D01*
X400701Y144401D01*
X400812Y144399D01*
X400923Y144401D01*
X401033Y144407D01*
X401144Y144416D01*
X401254Y144430D01*
X401363Y144447D01*
X401472Y144468D01*
X401580Y144493D01*
X401687Y144522D01*
X401793Y144554D01*
X401898Y144590D01*
X402001Y144630D01*
X402103Y144673D01*
X402204Y144720D01*
X402303Y144771D01*
X402399Y144824D01*
X402494Y144881D01*
X402587Y144942D01*
X402678Y145005D01*
X402767Y145072D01*
X402853Y145142D01*
X402936Y145215D01*
X403018Y145290D01*
X403096Y145368D01*
X403171Y145450D01*
X403244Y145533D01*
X403314Y145619D01*
X403381Y145708D01*
X403444Y145799D01*
X403505Y145892D01*
X403562Y145986D01*
X403615Y146083D01*
X403666Y146182D01*
X403713Y146283D01*
X403756Y146385D01*
X403796Y146488D01*
X403832Y146593D01*
X403864Y146699D01*
X403893Y146806D01*
X403918Y146914D01*
X403939Y147023D01*
X403956Y147132D01*
X403970Y147242D01*
X403979Y147353D01*
X403985Y147463D01*
X403987Y147574D01*
X403987Y155829D01*
X411861Y155829D02*
X411861Y144399D01*
X408686Y155829D02*
X415036Y155829D01*
X419925Y155829D02*
X419925Y144399D01*
X419925Y155829D02*
X423100Y155829D01*
X423211Y155827D01*
X423321Y155821D01*
X423432Y155812D01*
X423542Y155798D01*
X423651Y155781D01*
X423760Y155760D01*
X423868Y155735D01*
X423975Y155706D01*
X424081Y155674D01*
X424186Y155638D01*
X424289Y155598D01*
X424391Y155555D01*
X424492Y155508D01*
X424591Y155457D01*
X424688Y155404D01*
X424782Y155347D01*
X424875Y155286D01*
X424966Y155223D01*
X425055Y155156D01*
X425141Y155086D01*
X425224Y155013D01*
X425306Y154938D01*
X425384Y154860D01*
X425459Y154778D01*
X425532Y154695D01*
X425602Y154609D01*
X425669Y154520D01*
X425732Y154429D01*
X425793Y154336D01*
X425850Y154241D01*
X425903Y154145D01*
X425954Y154046D01*
X426001Y153945D01*
X426044Y153843D01*
X426084Y153740D01*
X426120Y153635D01*
X426152Y153529D01*
X426181Y153422D01*
X426206Y153314D01*
X426227Y153205D01*
X426244Y153096D01*
X426258Y152986D01*
X426267Y152875D01*
X426273Y152765D01*
X426275Y152654D01*
X426273Y152543D01*
X426267Y152433D01*
X426258Y152322D01*
X426244Y152212D01*
X426227Y152103D01*
X426206Y151994D01*
X426181Y151886D01*
X426152Y151779D01*
X426120Y151673D01*
X426084Y151568D01*
X426044Y151465D01*
X426001Y151363D01*
X425954Y151262D01*
X425903Y151163D01*
X425850Y151066D01*
X425793Y150972D01*
X425732Y150879D01*
X425669Y150788D01*
X425602Y150699D01*
X425532Y150613D01*
X425459Y150530D01*
X425384Y150448D01*
X425306Y150370D01*
X425224Y150295D01*
X425141Y150222D01*
X425055Y150152D01*
X424966Y150085D01*
X424875Y150022D01*
X424782Y149961D01*
X424688Y149904D01*
X424591Y149851D01*
X424492Y149800D01*
X424391Y149753D01*
X424289Y149710D01*
X424186Y149670D01*
X424081Y149634D01*
X423975Y149602D01*
X423868Y149573D01*
X423760Y149548D01*
X423651Y149527D01*
X423542Y149510D01*
X423432Y149496D01*
X423321Y149487D01*
X423211Y149481D01*
X423100Y149479D01*
X419925Y149479D01*
X431165Y147574D02*
X431165Y155829D01*
X431165Y147574D02*
X431167Y147463D01*
X431173Y147353D01*
X431182Y147242D01*
X431196Y147132D01*
X431213Y147023D01*
X431234Y146914D01*
X431259Y146806D01*
X431288Y146699D01*
X431320Y146593D01*
X431356Y146488D01*
X431396Y146385D01*
X431439Y146283D01*
X431486Y146182D01*
X431537Y146083D01*
X431590Y145987D01*
X431647Y145892D01*
X431708Y145799D01*
X431771Y145708D01*
X431838Y145619D01*
X431908Y145533D01*
X431981Y145450D01*
X432056Y145368D01*
X432134Y145290D01*
X432216Y145215D01*
X432299Y145142D01*
X432385Y145072D01*
X432474Y145005D01*
X432565Y144942D01*
X432658Y144881D01*
X432753Y144824D01*
X432849Y144771D01*
X432948Y144720D01*
X433049Y144673D01*
X433151Y144630D01*
X433254Y144590D01*
X433359Y144554D01*
X433465Y144522D01*
X433572Y144493D01*
X433680Y144468D01*
X433789Y144447D01*
X433898Y144430D01*
X434008Y144416D01*
X434119Y144407D01*
X434229Y144401D01*
X434340Y144399D01*
X434451Y144401D01*
X434561Y144407D01*
X434672Y144416D01*
X434782Y144430D01*
X434891Y144447D01*
X435000Y144468D01*
X435108Y144493D01*
X435215Y144522D01*
X435321Y144554D01*
X435426Y144590D01*
X435529Y144630D01*
X435631Y144673D01*
X435732Y144720D01*
X435831Y144771D01*
X435927Y144824D01*
X436022Y144881D01*
X436115Y144942D01*
X436206Y145005D01*
X436295Y145072D01*
X436381Y145142D01*
X436464Y145215D01*
X436546Y145290D01*
X436624Y145368D01*
X436699Y145450D01*
X436772Y145533D01*
X436842Y145619D01*
X436909Y145708D01*
X436972Y145799D01*
X437033Y145892D01*
X437090Y145986D01*
X437143Y146083D01*
X437194Y146182D01*
X437241Y146283D01*
X437284Y146385D01*
X437324Y146488D01*
X437360Y146593D01*
X437392Y146699D01*
X437421Y146806D01*
X437446Y146914D01*
X437467Y147023D01*
X437484Y147132D01*
X437498Y147242D01*
X437507Y147353D01*
X437513Y147463D01*
X437515Y147574D01*
X437515Y155829D01*
X445389Y155829D02*
X445389Y144399D01*
X442214Y155829D02*
X448564Y155829D01*
D10*
X232410Y39370D02*
X219710Y39370D01*
X219570Y39372D01*
X219430Y39378D01*
X219290Y39387D01*
X219151Y39401D01*
X219012Y39418D01*
X218874Y39439D01*
X218736Y39464D01*
X218599Y39493D01*
X218463Y39525D01*
X218328Y39562D01*
X218194Y39602D01*
X218061Y39645D01*
X217929Y39693D01*
X217798Y39743D01*
X217669Y39798D01*
X217542Y39856D01*
X217416Y39917D01*
X217292Y39982D01*
X217170Y40051D01*
X217050Y40122D01*
X216932Y40197D01*
X216815Y40275D01*
X216701Y40357D01*
X216590Y40441D01*
X216481Y40529D01*
X216374Y40619D01*
X216269Y40713D01*
X216168Y40809D01*
X216069Y40908D01*
X215973Y41009D01*
X215879Y41114D01*
X215789Y41221D01*
X215701Y41330D01*
X215617Y41441D01*
X215535Y41555D01*
X215457Y41672D01*
X215382Y41790D01*
X215311Y41910D01*
X215242Y42032D01*
X215177Y42156D01*
X215116Y42282D01*
X215058Y42409D01*
X215003Y42538D01*
X214953Y42669D01*
X214905Y42801D01*
X214862Y42934D01*
X214822Y43068D01*
X214785Y43203D01*
X214753Y43339D01*
X214724Y43476D01*
X214699Y43614D01*
X214678Y43752D01*
X214661Y43891D01*
X214647Y44030D01*
X214638Y44170D01*
X214632Y44310D01*
X214630Y44450D01*
X232410Y39370D02*
X232550Y39372D01*
X232690Y39378D01*
X232830Y39387D01*
X232969Y39401D01*
X233108Y39418D01*
X233246Y39439D01*
X233384Y39464D01*
X233521Y39493D01*
X233657Y39525D01*
X233792Y39562D01*
X233926Y39602D01*
X234059Y39645D01*
X234191Y39693D01*
X234322Y39743D01*
X234451Y39798D01*
X234578Y39856D01*
X234704Y39917D01*
X234828Y39982D01*
X234950Y40051D01*
X235070Y40122D01*
X235188Y40197D01*
X235305Y40275D01*
X235419Y40357D01*
X235530Y40441D01*
X235639Y40529D01*
X235746Y40619D01*
X235851Y40713D01*
X235952Y40809D01*
X236051Y40908D01*
X236147Y41009D01*
X236241Y41114D01*
X236331Y41221D01*
X236419Y41330D01*
X236503Y41441D01*
X236585Y41555D01*
X236663Y41672D01*
X236738Y41790D01*
X236809Y41910D01*
X236878Y42032D01*
X236943Y42156D01*
X237004Y42282D01*
X237062Y42409D01*
X237117Y42538D01*
X237167Y42669D01*
X237215Y42801D01*
X237258Y42934D01*
X237298Y43068D01*
X237335Y43203D01*
X237367Y43339D01*
X237396Y43476D01*
X237421Y43614D01*
X237442Y43752D01*
X237459Y43891D01*
X237473Y44030D01*
X237482Y44170D01*
X237488Y44310D01*
X237490Y44450D01*
X214630Y44450D02*
X214630Y77470D01*
X219710Y82550D02*
X232410Y82550D01*
X237490Y77470D02*
X237490Y44450D01*
X214630Y77470D02*
X214632Y77610D01*
X214638Y77750D01*
X214647Y77890D01*
X214661Y78029D01*
X214678Y78168D01*
X214699Y78306D01*
X214724Y78444D01*
X214753Y78581D01*
X214785Y78717D01*
X214822Y78852D01*
X214862Y78986D01*
X214905Y79119D01*
X214953Y79251D01*
X215003Y79382D01*
X215058Y79511D01*
X215116Y79638D01*
X215177Y79764D01*
X215242Y79888D01*
X215311Y80010D01*
X215382Y80130D01*
X215457Y80248D01*
X215535Y80365D01*
X215617Y80479D01*
X215701Y80590D01*
X215789Y80699D01*
X215879Y80806D01*
X215973Y80911D01*
X216069Y81012D01*
X216168Y81111D01*
X216269Y81207D01*
X216374Y81301D01*
X216481Y81391D01*
X216590Y81479D01*
X216701Y81563D01*
X216815Y81645D01*
X216932Y81723D01*
X217050Y81798D01*
X217170Y81869D01*
X217292Y81938D01*
X217416Y82003D01*
X217542Y82064D01*
X217669Y82122D01*
X217798Y82177D01*
X217929Y82227D01*
X218061Y82275D01*
X218194Y82318D01*
X218328Y82358D01*
X218463Y82395D01*
X218599Y82427D01*
X218736Y82456D01*
X218874Y82481D01*
X219012Y82502D01*
X219151Y82519D01*
X219290Y82533D01*
X219430Y82542D01*
X219570Y82548D01*
X219710Y82550D01*
X232410Y82550D02*
X232550Y82548D01*
X232690Y82542D01*
X232830Y82533D01*
X232969Y82519D01*
X233108Y82502D01*
X233246Y82481D01*
X233384Y82456D01*
X233521Y82427D01*
X233657Y82395D01*
X233792Y82358D01*
X233926Y82318D01*
X234059Y82275D01*
X234191Y82227D01*
X234322Y82177D01*
X234451Y82122D01*
X234578Y82064D01*
X234704Y82003D01*
X234828Y81938D01*
X234950Y81869D01*
X235070Y81798D01*
X235188Y81723D01*
X235305Y81645D01*
X235419Y81563D01*
X235530Y81479D01*
X235639Y81391D01*
X235746Y81301D01*
X235851Y81207D01*
X235952Y81111D01*
X236051Y81012D01*
X236147Y80911D01*
X236241Y80806D01*
X236331Y80699D01*
X236419Y80590D01*
X236503Y80479D01*
X236585Y80365D01*
X236663Y80248D01*
X236738Y80130D01*
X236809Y80010D01*
X236878Y79888D01*
X236943Y79764D01*
X237004Y79638D01*
X237062Y79511D01*
X237117Y79382D01*
X237167Y79251D01*
X237215Y79119D01*
X237258Y78986D01*
X237298Y78852D01*
X237335Y78717D01*
X237367Y78581D01*
X237396Y78444D01*
X237421Y78306D01*
X237442Y78168D01*
X237459Y78029D01*
X237473Y77890D01*
X237482Y77750D01*
X237488Y77610D01*
X237490Y77470D01*
D12*
X233680Y57912D02*
X218440Y57912D01*
X218440Y64262D02*
X233680Y64262D01*
D11*
X211455Y48895D02*
X211455Y46355D01*
X211453Y46255D01*
X211447Y46156D01*
X211437Y46056D01*
X211424Y45958D01*
X211406Y45859D01*
X211385Y45762D01*
X211360Y45666D01*
X211331Y45570D01*
X211298Y45476D01*
X211262Y45383D01*
X211222Y45292D01*
X211178Y45202D01*
X211131Y45114D01*
X211081Y45028D01*
X211027Y44944D01*
X210970Y44862D01*
X210910Y44783D01*
X210846Y44705D01*
X210780Y44631D01*
X210711Y44559D01*
X210639Y44490D01*
X210565Y44424D01*
X210487Y44360D01*
X210408Y44300D01*
X210326Y44243D01*
X210242Y44189D01*
X210156Y44139D01*
X210068Y44092D01*
X209978Y44048D01*
X209887Y44008D01*
X209794Y43972D01*
X209700Y43939D01*
X209604Y43910D01*
X209508Y43885D01*
X209411Y43864D01*
X209312Y43846D01*
X209214Y43833D01*
X209114Y43823D01*
X209015Y43817D01*
X208915Y43815D01*
X202565Y43815D01*
X202465Y43817D01*
X202366Y43823D01*
X202266Y43833D01*
X202168Y43846D01*
X202069Y43864D01*
X201972Y43885D01*
X201876Y43910D01*
X201780Y43939D01*
X201686Y43972D01*
X201593Y44008D01*
X201502Y44048D01*
X201412Y44092D01*
X201324Y44139D01*
X201238Y44189D01*
X201154Y44243D01*
X201072Y44300D01*
X200993Y44360D01*
X200915Y44424D01*
X200841Y44490D01*
X200769Y44559D01*
X200700Y44631D01*
X200634Y44705D01*
X200570Y44783D01*
X200510Y44862D01*
X200453Y44944D01*
X200399Y45028D01*
X200349Y45114D01*
X200302Y45202D01*
X200258Y45292D01*
X200218Y45383D01*
X200182Y45476D01*
X200149Y45570D01*
X200120Y45666D01*
X200095Y45762D01*
X200074Y45859D01*
X200056Y45958D01*
X200043Y46056D01*
X200033Y46156D01*
X200027Y46255D01*
X200025Y46355D01*
X200025Y48895D01*
X202565Y53377D02*
X200025Y56552D01*
X211455Y56552D01*
X211455Y53377D02*
X211455Y59727D01*
D10*
X281940Y41910D02*
X281940Y85090D01*
X307340Y85090D02*
X307340Y41910D01*
X304800Y87630D02*
X284480Y87630D01*
X284480Y39370D02*
X304800Y39370D01*
X281940Y85090D02*
X281942Y85190D01*
X281948Y85289D01*
X281958Y85389D01*
X281971Y85487D01*
X281989Y85586D01*
X282010Y85683D01*
X282035Y85779D01*
X282064Y85875D01*
X282097Y85969D01*
X282133Y86062D01*
X282173Y86153D01*
X282217Y86243D01*
X282264Y86331D01*
X282314Y86417D01*
X282368Y86501D01*
X282425Y86583D01*
X282485Y86662D01*
X282549Y86740D01*
X282615Y86814D01*
X282684Y86886D01*
X282756Y86955D01*
X282830Y87021D01*
X282908Y87085D01*
X282987Y87145D01*
X283069Y87202D01*
X283153Y87256D01*
X283239Y87306D01*
X283327Y87353D01*
X283417Y87397D01*
X283508Y87437D01*
X283601Y87473D01*
X283695Y87506D01*
X283791Y87535D01*
X283887Y87560D01*
X283984Y87581D01*
X284083Y87599D01*
X284181Y87612D01*
X284281Y87622D01*
X284380Y87628D01*
X284480Y87630D01*
X281940Y41910D02*
X281942Y41810D01*
X281948Y41711D01*
X281958Y41611D01*
X281971Y41513D01*
X281989Y41414D01*
X282010Y41317D01*
X282035Y41221D01*
X282064Y41125D01*
X282097Y41031D01*
X282133Y40938D01*
X282173Y40847D01*
X282217Y40757D01*
X282264Y40669D01*
X282314Y40583D01*
X282368Y40499D01*
X282425Y40417D01*
X282485Y40338D01*
X282549Y40260D01*
X282615Y40186D01*
X282684Y40114D01*
X282756Y40045D01*
X282830Y39979D01*
X282908Y39915D01*
X282987Y39855D01*
X283069Y39798D01*
X283153Y39744D01*
X283239Y39694D01*
X283327Y39647D01*
X283417Y39603D01*
X283508Y39563D01*
X283601Y39527D01*
X283695Y39494D01*
X283791Y39465D01*
X283887Y39440D01*
X283984Y39419D01*
X284083Y39401D01*
X284181Y39388D01*
X284281Y39378D01*
X284380Y39372D01*
X284480Y39370D01*
X307340Y85090D02*
X307338Y85190D01*
X307332Y85289D01*
X307322Y85389D01*
X307309Y85487D01*
X307291Y85586D01*
X307270Y85683D01*
X307245Y85779D01*
X307216Y85875D01*
X307183Y85969D01*
X307147Y86062D01*
X307107Y86153D01*
X307063Y86243D01*
X307016Y86331D01*
X306966Y86417D01*
X306912Y86501D01*
X306855Y86583D01*
X306795Y86662D01*
X306731Y86740D01*
X306665Y86814D01*
X306596Y86886D01*
X306524Y86955D01*
X306450Y87021D01*
X306372Y87085D01*
X306293Y87145D01*
X306211Y87202D01*
X306127Y87256D01*
X306041Y87306D01*
X305953Y87353D01*
X305863Y87397D01*
X305772Y87437D01*
X305679Y87473D01*
X305585Y87506D01*
X305489Y87535D01*
X305393Y87560D01*
X305296Y87581D01*
X305197Y87599D01*
X305099Y87612D01*
X304999Y87622D01*
X304900Y87628D01*
X304800Y87630D01*
X307340Y41910D02*
X307338Y41810D01*
X307332Y41711D01*
X307322Y41611D01*
X307309Y41513D01*
X307291Y41414D01*
X307270Y41317D01*
X307245Y41221D01*
X307216Y41125D01*
X307183Y41031D01*
X307147Y40938D01*
X307107Y40847D01*
X307063Y40757D01*
X307016Y40669D01*
X306966Y40583D01*
X306912Y40499D01*
X306855Y40417D01*
X306795Y40338D01*
X306731Y40260D01*
X306665Y40186D01*
X306596Y40114D01*
X306524Y40045D01*
X306450Y39979D01*
X306372Y39915D01*
X306293Y39855D01*
X306211Y39798D01*
X306127Y39744D01*
X306041Y39694D01*
X305953Y39647D01*
X305863Y39603D01*
X305772Y39563D01*
X305679Y39527D01*
X305585Y39494D01*
X305489Y39465D01*
X305393Y39440D01*
X305296Y39419D01*
X305197Y39401D01*
X305099Y39388D01*
X304999Y39378D01*
X304900Y39372D01*
X304800Y39370D01*
X294640Y66040D02*
X294640Y67310D01*
D13*
X294640Y66040D02*
X287020Y66040D01*
X294640Y66040D02*
X302260Y66040D01*
X294640Y60960D02*
X287020Y60960D01*
X294640Y60960D02*
X302260Y60960D01*
D10*
X294640Y60960D02*
X294640Y59690D01*
D11*
X278765Y46355D02*
X278765Y43815D01*
X278763Y43715D01*
X278757Y43616D01*
X278747Y43516D01*
X278734Y43418D01*
X278716Y43319D01*
X278695Y43222D01*
X278670Y43126D01*
X278641Y43030D01*
X278608Y42936D01*
X278572Y42843D01*
X278532Y42752D01*
X278488Y42662D01*
X278441Y42574D01*
X278391Y42488D01*
X278337Y42404D01*
X278280Y42322D01*
X278220Y42243D01*
X278156Y42165D01*
X278090Y42091D01*
X278021Y42019D01*
X277949Y41950D01*
X277875Y41884D01*
X277797Y41820D01*
X277718Y41760D01*
X277636Y41703D01*
X277552Y41649D01*
X277466Y41599D01*
X277378Y41552D01*
X277288Y41508D01*
X277197Y41468D01*
X277104Y41432D01*
X277010Y41399D01*
X276914Y41370D01*
X276818Y41345D01*
X276721Y41324D01*
X276622Y41306D01*
X276524Y41293D01*
X276424Y41283D01*
X276325Y41277D01*
X276225Y41275D01*
X269875Y41275D01*
X269775Y41277D01*
X269676Y41283D01*
X269576Y41293D01*
X269478Y41306D01*
X269379Y41324D01*
X269282Y41345D01*
X269186Y41370D01*
X269090Y41399D01*
X268996Y41432D01*
X268903Y41468D01*
X268812Y41508D01*
X268722Y41552D01*
X268634Y41599D01*
X268548Y41649D01*
X268464Y41703D01*
X268382Y41760D01*
X268303Y41820D01*
X268225Y41884D01*
X268151Y41950D01*
X268079Y42019D01*
X268010Y42091D01*
X267944Y42165D01*
X267880Y42243D01*
X267820Y42322D01*
X267763Y42404D01*
X267709Y42488D01*
X267659Y42574D01*
X267612Y42662D01*
X267568Y42752D01*
X267528Y42843D01*
X267492Y42936D01*
X267459Y43030D01*
X267430Y43126D01*
X267405Y43222D01*
X267384Y43319D01*
X267366Y43418D01*
X267353Y43516D01*
X267343Y43616D01*
X267337Y43715D01*
X267335Y43815D01*
X267335Y46355D01*
X267335Y54330D02*
X267337Y54434D01*
X267343Y54539D01*
X267352Y54643D01*
X267365Y54746D01*
X267383Y54849D01*
X267403Y54951D01*
X267428Y55053D01*
X267456Y55153D01*
X267488Y55253D01*
X267524Y55351D01*
X267563Y55448D01*
X267605Y55543D01*
X267651Y55637D01*
X267701Y55729D01*
X267753Y55819D01*
X267809Y55907D01*
X267869Y55993D01*
X267931Y56077D01*
X267996Y56158D01*
X268064Y56237D01*
X268136Y56314D01*
X268209Y56387D01*
X268286Y56459D01*
X268365Y56527D01*
X268446Y56592D01*
X268530Y56654D01*
X268616Y56714D01*
X268704Y56770D01*
X268794Y56822D01*
X268886Y56872D01*
X268980Y56918D01*
X269075Y56960D01*
X269172Y56999D01*
X269270Y57035D01*
X269370Y57067D01*
X269470Y57095D01*
X269572Y57120D01*
X269674Y57140D01*
X269777Y57158D01*
X269880Y57171D01*
X269984Y57180D01*
X270089Y57186D01*
X270193Y57188D01*
X267335Y54330D02*
X267337Y54212D01*
X267343Y54093D01*
X267352Y53975D01*
X267365Y53858D01*
X267383Y53741D01*
X267403Y53624D01*
X267428Y53508D01*
X267456Y53393D01*
X267489Y53280D01*
X267524Y53167D01*
X267564Y53055D01*
X267606Y52945D01*
X267653Y52836D01*
X267703Y52728D01*
X267756Y52623D01*
X267813Y52519D01*
X267873Y52417D01*
X267936Y52317D01*
X268003Y52219D01*
X268072Y52123D01*
X268145Y52030D01*
X268221Y51939D01*
X268299Y51850D01*
X268381Y51764D01*
X268465Y51681D01*
X268551Y51600D01*
X268641Y51523D01*
X268732Y51448D01*
X268826Y51376D01*
X268923Y51307D01*
X269021Y51242D01*
X269122Y51179D01*
X269225Y51120D01*
X269329Y51064D01*
X269435Y51012D01*
X269543Y50963D01*
X269652Y50918D01*
X269763Y50876D01*
X269875Y50838D01*
X272415Y56235D02*
X272340Y56311D01*
X272261Y56386D01*
X272180Y56457D01*
X272096Y56526D01*
X272010Y56591D01*
X271922Y56653D01*
X271832Y56713D01*
X271740Y56769D01*
X271645Y56822D01*
X271549Y56871D01*
X271451Y56917D01*
X271352Y56960D01*
X271251Y56999D01*
X271149Y57034D01*
X271046Y57066D01*
X270942Y57094D01*
X270837Y57119D01*
X270730Y57140D01*
X270624Y57157D01*
X270517Y57170D01*
X270409Y57179D01*
X270301Y57185D01*
X270193Y57187D01*
X272415Y56235D02*
X278765Y50837D01*
X278765Y57187D01*
D10*
X355600Y39370D02*
X355600Y82550D01*
X381000Y82550D02*
X381000Y39370D01*
X378460Y85090D02*
X358140Y85090D01*
X358140Y36830D02*
X378460Y36830D01*
X355600Y82550D02*
X355602Y82650D01*
X355608Y82749D01*
X355618Y82849D01*
X355631Y82947D01*
X355649Y83046D01*
X355670Y83143D01*
X355695Y83239D01*
X355724Y83335D01*
X355757Y83429D01*
X355793Y83522D01*
X355833Y83613D01*
X355877Y83703D01*
X355924Y83791D01*
X355974Y83877D01*
X356028Y83961D01*
X356085Y84043D01*
X356145Y84122D01*
X356209Y84200D01*
X356275Y84274D01*
X356344Y84346D01*
X356416Y84415D01*
X356490Y84481D01*
X356568Y84545D01*
X356647Y84605D01*
X356729Y84662D01*
X356813Y84716D01*
X356899Y84766D01*
X356987Y84813D01*
X357077Y84857D01*
X357168Y84897D01*
X357261Y84933D01*
X357355Y84966D01*
X357451Y84995D01*
X357547Y85020D01*
X357644Y85041D01*
X357743Y85059D01*
X357841Y85072D01*
X357941Y85082D01*
X358040Y85088D01*
X358140Y85090D01*
X355600Y39370D02*
X355602Y39270D01*
X355608Y39171D01*
X355618Y39071D01*
X355631Y38973D01*
X355649Y38874D01*
X355670Y38777D01*
X355695Y38681D01*
X355724Y38585D01*
X355757Y38491D01*
X355793Y38398D01*
X355833Y38307D01*
X355877Y38217D01*
X355924Y38129D01*
X355974Y38043D01*
X356028Y37959D01*
X356085Y37877D01*
X356145Y37798D01*
X356209Y37720D01*
X356275Y37646D01*
X356344Y37574D01*
X356416Y37505D01*
X356490Y37439D01*
X356568Y37375D01*
X356647Y37315D01*
X356729Y37258D01*
X356813Y37204D01*
X356899Y37154D01*
X356987Y37107D01*
X357077Y37063D01*
X357168Y37023D01*
X357261Y36987D01*
X357355Y36954D01*
X357451Y36925D01*
X357547Y36900D01*
X357644Y36879D01*
X357743Y36861D01*
X357841Y36848D01*
X357941Y36838D01*
X358040Y36832D01*
X358140Y36830D01*
X381000Y82550D02*
X380998Y82650D01*
X380992Y82749D01*
X380982Y82849D01*
X380969Y82947D01*
X380951Y83046D01*
X380930Y83143D01*
X380905Y83239D01*
X380876Y83335D01*
X380843Y83429D01*
X380807Y83522D01*
X380767Y83613D01*
X380723Y83703D01*
X380676Y83791D01*
X380626Y83877D01*
X380572Y83961D01*
X380515Y84043D01*
X380455Y84122D01*
X380391Y84200D01*
X380325Y84274D01*
X380256Y84346D01*
X380184Y84415D01*
X380110Y84481D01*
X380032Y84545D01*
X379953Y84605D01*
X379871Y84662D01*
X379787Y84716D01*
X379701Y84766D01*
X379613Y84813D01*
X379523Y84857D01*
X379432Y84897D01*
X379339Y84933D01*
X379245Y84966D01*
X379149Y84995D01*
X379053Y85020D01*
X378956Y85041D01*
X378857Y85059D01*
X378759Y85072D01*
X378659Y85082D01*
X378560Y85088D01*
X378460Y85090D01*
X381000Y39370D02*
X380998Y39270D01*
X380992Y39171D01*
X380982Y39071D01*
X380969Y38973D01*
X380951Y38874D01*
X380930Y38777D01*
X380905Y38681D01*
X380876Y38585D01*
X380843Y38491D01*
X380807Y38398D01*
X380767Y38307D01*
X380723Y38217D01*
X380676Y38129D01*
X380626Y38043D01*
X380572Y37959D01*
X380515Y37877D01*
X380455Y37798D01*
X380391Y37720D01*
X380325Y37646D01*
X380256Y37574D01*
X380184Y37505D01*
X380110Y37439D01*
X380032Y37375D01*
X379953Y37315D01*
X379871Y37258D01*
X379787Y37204D01*
X379701Y37154D01*
X379613Y37107D01*
X379523Y37063D01*
X379432Y37023D01*
X379339Y36987D01*
X379245Y36954D01*
X379149Y36925D01*
X379053Y36900D01*
X378956Y36879D01*
X378857Y36861D01*
X378759Y36848D01*
X378659Y36838D01*
X378560Y36832D01*
X378460Y36830D01*
X368300Y63500D02*
X368300Y64770D01*
D13*
X368300Y63500D02*
X360680Y63500D01*
X368300Y63500D02*
X375920Y63500D01*
X368300Y58420D02*
X360680Y58420D01*
X368300Y58420D02*
X375920Y58420D01*
D10*
X368300Y58420D02*
X368300Y57150D01*
D11*
X352425Y43815D02*
X352425Y41275D01*
X352423Y41175D01*
X352417Y41076D01*
X352407Y40976D01*
X352394Y40878D01*
X352376Y40779D01*
X352355Y40682D01*
X352330Y40586D01*
X352301Y40490D01*
X352268Y40396D01*
X352232Y40303D01*
X352192Y40212D01*
X352148Y40122D01*
X352101Y40034D01*
X352051Y39948D01*
X351997Y39864D01*
X351940Y39782D01*
X351880Y39703D01*
X351816Y39625D01*
X351750Y39551D01*
X351681Y39479D01*
X351609Y39410D01*
X351535Y39344D01*
X351457Y39280D01*
X351378Y39220D01*
X351296Y39163D01*
X351212Y39109D01*
X351126Y39059D01*
X351038Y39012D01*
X350948Y38968D01*
X350857Y38928D01*
X350764Y38892D01*
X350670Y38859D01*
X350574Y38830D01*
X350478Y38805D01*
X350381Y38784D01*
X350282Y38766D01*
X350184Y38753D01*
X350084Y38743D01*
X349985Y38737D01*
X349885Y38735D01*
X343535Y38735D01*
X343435Y38737D01*
X343336Y38743D01*
X343236Y38753D01*
X343138Y38766D01*
X343039Y38784D01*
X342942Y38805D01*
X342846Y38830D01*
X342750Y38859D01*
X342656Y38892D01*
X342563Y38928D01*
X342472Y38968D01*
X342382Y39012D01*
X342294Y39059D01*
X342208Y39109D01*
X342124Y39163D01*
X342042Y39220D01*
X341963Y39280D01*
X341885Y39344D01*
X341811Y39410D01*
X341739Y39479D01*
X341670Y39551D01*
X341604Y39625D01*
X341540Y39703D01*
X341480Y39782D01*
X341423Y39864D01*
X341369Y39948D01*
X341319Y40034D01*
X341272Y40122D01*
X341228Y40212D01*
X341188Y40303D01*
X341152Y40396D01*
X341119Y40490D01*
X341090Y40586D01*
X341065Y40682D01*
X341044Y40779D01*
X341026Y40878D01*
X341013Y40976D01*
X341003Y41076D01*
X340997Y41175D01*
X340995Y41275D01*
X340995Y43815D01*
X352425Y48297D02*
X352425Y51472D01*
X352423Y51583D01*
X352417Y51693D01*
X352408Y51804D01*
X352394Y51914D01*
X352377Y52023D01*
X352356Y52132D01*
X352331Y52240D01*
X352302Y52347D01*
X352270Y52453D01*
X352234Y52558D01*
X352194Y52661D01*
X352151Y52763D01*
X352104Y52864D01*
X352053Y52963D01*
X352000Y53060D01*
X351943Y53154D01*
X351882Y53247D01*
X351819Y53338D01*
X351752Y53427D01*
X351682Y53513D01*
X351609Y53596D01*
X351534Y53678D01*
X351456Y53756D01*
X351374Y53831D01*
X351291Y53904D01*
X351205Y53974D01*
X351116Y54041D01*
X351025Y54104D01*
X350932Y54165D01*
X350838Y54222D01*
X350741Y54275D01*
X350642Y54326D01*
X350541Y54373D01*
X350439Y54416D01*
X350336Y54456D01*
X350231Y54492D01*
X350125Y54524D01*
X350018Y54553D01*
X349910Y54578D01*
X349801Y54599D01*
X349692Y54616D01*
X349582Y54630D01*
X349471Y54639D01*
X349361Y54645D01*
X349250Y54647D01*
X349139Y54645D01*
X349029Y54639D01*
X348918Y54630D01*
X348808Y54616D01*
X348699Y54599D01*
X348590Y54578D01*
X348482Y54553D01*
X348375Y54524D01*
X348269Y54492D01*
X348164Y54456D01*
X348061Y54416D01*
X347959Y54373D01*
X347858Y54326D01*
X347759Y54275D01*
X347663Y54222D01*
X347568Y54165D01*
X347475Y54104D01*
X347384Y54041D01*
X347295Y53974D01*
X347209Y53904D01*
X347126Y53831D01*
X347044Y53756D01*
X346966Y53678D01*
X346891Y53596D01*
X346818Y53513D01*
X346748Y53427D01*
X346681Y53338D01*
X346618Y53247D01*
X346557Y53154D01*
X346500Y53059D01*
X346447Y52963D01*
X346396Y52864D01*
X346349Y52763D01*
X346306Y52661D01*
X346266Y52558D01*
X346230Y52453D01*
X346198Y52347D01*
X346169Y52240D01*
X346144Y52132D01*
X346123Y52023D01*
X346106Y51914D01*
X346092Y51804D01*
X346083Y51693D01*
X346077Y51583D01*
X346075Y51472D01*
X340995Y52107D02*
X340995Y48297D01*
X340995Y52107D02*
X340997Y52207D01*
X341003Y52306D01*
X341013Y52406D01*
X341026Y52504D01*
X341044Y52603D01*
X341065Y52700D01*
X341090Y52796D01*
X341119Y52892D01*
X341152Y52986D01*
X341188Y53079D01*
X341228Y53170D01*
X341272Y53260D01*
X341319Y53348D01*
X341369Y53434D01*
X341423Y53518D01*
X341480Y53600D01*
X341540Y53679D01*
X341604Y53757D01*
X341670Y53831D01*
X341739Y53903D01*
X341811Y53972D01*
X341885Y54038D01*
X341963Y54102D01*
X342042Y54162D01*
X342124Y54219D01*
X342208Y54273D01*
X342294Y54323D01*
X342382Y54370D01*
X342472Y54414D01*
X342563Y54454D01*
X342656Y54490D01*
X342750Y54523D01*
X342846Y54552D01*
X342942Y54577D01*
X343039Y54598D01*
X343138Y54616D01*
X343236Y54629D01*
X343336Y54639D01*
X343435Y54645D01*
X343535Y54647D01*
X343635Y54645D01*
X343734Y54639D01*
X343834Y54629D01*
X343932Y54616D01*
X344031Y54598D01*
X344128Y54577D01*
X344224Y54552D01*
X344320Y54523D01*
X344414Y54490D01*
X344507Y54454D01*
X344598Y54414D01*
X344688Y54370D01*
X344776Y54323D01*
X344862Y54273D01*
X344946Y54219D01*
X345028Y54162D01*
X345107Y54102D01*
X345185Y54038D01*
X345259Y53972D01*
X345331Y53903D01*
X345400Y53831D01*
X345466Y53757D01*
X345530Y53679D01*
X345590Y53600D01*
X345647Y53518D01*
X345701Y53434D01*
X345751Y53348D01*
X345798Y53260D01*
X345842Y53170D01*
X345882Y53079D01*
X345918Y52986D01*
X345951Y52892D01*
X345980Y52796D01*
X346005Y52700D01*
X346026Y52603D01*
X346044Y52504D01*
X346057Y52406D01*
X346067Y52306D01*
X346073Y52207D01*
X346075Y52107D01*
X346075Y49567D01*
D10*
X127000Y175260D02*
X86360Y175260D01*
X86360Y149860D01*
X127000Y149860D01*
X127000Y175260D01*
X113030Y162560D02*
X106680Y162560D01*
X96520Y156210D02*
X96520Y168910D01*
X106680Y162560D01*
X91440Y162560D01*
X96520Y156210D02*
X106680Y162560D01*
X106680Y156210D01*
X106680Y162560D02*
X106680Y168910D01*
D14*
X120650Y162560D03*
D15*
X76835Y162560D03*
X136525Y162560D03*
D11*
X108204Y145415D02*
X108204Y133985D01*
X108204Y145415D02*
X111379Y145415D01*
X111490Y145413D01*
X111600Y145407D01*
X111711Y145398D01*
X111821Y145384D01*
X111930Y145367D01*
X112039Y145346D01*
X112147Y145321D01*
X112254Y145292D01*
X112360Y145260D01*
X112465Y145224D01*
X112568Y145184D01*
X112670Y145141D01*
X112771Y145094D01*
X112870Y145043D01*
X112967Y144990D01*
X113061Y144933D01*
X113154Y144872D01*
X113245Y144809D01*
X113334Y144742D01*
X113420Y144672D01*
X113503Y144599D01*
X113585Y144524D01*
X113663Y144446D01*
X113738Y144364D01*
X113811Y144281D01*
X113881Y144195D01*
X113948Y144106D01*
X114011Y144015D01*
X114072Y143922D01*
X114129Y143828D01*
X114182Y143731D01*
X114233Y143632D01*
X114280Y143531D01*
X114323Y143429D01*
X114363Y143326D01*
X114399Y143221D01*
X114431Y143115D01*
X114460Y143008D01*
X114485Y142900D01*
X114506Y142791D01*
X114523Y142682D01*
X114537Y142572D01*
X114546Y142461D01*
X114552Y142351D01*
X114554Y142240D01*
X114554Y137160D01*
X114552Y137049D01*
X114546Y136939D01*
X114537Y136828D01*
X114523Y136718D01*
X114506Y136609D01*
X114485Y136500D01*
X114460Y136392D01*
X114431Y136285D01*
X114399Y136179D01*
X114363Y136074D01*
X114323Y135971D01*
X114280Y135869D01*
X114233Y135768D01*
X114182Y135669D01*
X114129Y135572D01*
X114072Y135478D01*
X114011Y135385D01*
X113948Y135294D01*
X113881Y135205D01*
X113811Y135119D01*
X113738Y135036D01*
X113663Y134954D01*
X113585Y134876D01*
X113503Y134801D01*
X113420Y134728D01*
X113334Y134658D01*
X113245Y134591D01*
X113154Y134528D01*
X113061Y134467D01*
X112966Y134410D01*
X112870Y134357D01*
X112771Y134306D01*
X112670Y134259D01*
X112568Y134216D01*
X112465Y134176D01*
X112360Y134140D01*
X112254Y134108D01*
X112147Y134079D01*
X112039Y134054D01*
X111930Y134033D01*
X111821Y134016D01*
X111711Y134002D01*
X111600Y133993D01*
X111490Y133987D01*
X111379Y133985D01*
X108204Y133985D01*
X120015Y142875D02*
X123190Y145415D01*
X123190Y133985D01*
X120015Y133985D02*
X126365Y133985D01*
D10*
X170180Y119380D02*
X170180Y78740D01*
X195580Y78740D01*
X195580Y119380D01*
X170180Y119380D01*
X182880Y105410D02*
X182880Y99060D01*
X189230Y88900D02*
X176530Y88900D01*
X182880Y99060D01*
X182880Y83820D01*
X189230Y88900D02*
X182880Y99060D01*
X189230Y99060D01*
X182880Y99060D02*
X176530Y99060D01*
D16*
X182880Y113030D03*
D17*
X182880Y69215D03*
X182880Y128905D03*
D11*
X200025Y100584D02*
X211455Y100584D01*
X200025Y100584D02*
X200025Y103759D01*
X200027Y103870D01*
X200033Y103980D01*
X200042Y104091D01*
X200056Y104201D01*
X200073Y104310D01*
X200094Y104419D01*
X200119Y104527D01*
X200148Y104634D01*
X200180Y104740D01*
X200216Y104845D01*
X200256Y104948D01*
X200299Y105050D01*
X200346Y105151D01*
X200397Y105250D01*
X200450Y105347D01*
X200507Y105441D01*
X200568Y105534D01*
X200631Y105625D01*
X200698Y105714D01*
X200768Y105800D01*
X200841Y105883D01*
X200916Y105965D01*
X200994Y106043D01*
X201076Y106118D01*
X201159Y106191D01*
X201245Y106261D01*
X201334Y106328D01*
X201425Y106391D01*
X201518Y106452D01*
X201613Y106509D01*
X201709Y106562D01*
X201808Y106613D01*
X201909Y106660D01*
X202011Y106703D01*
X202114Y106743D01*
X202219Y106779D01*
X202325Y106811D01*
X202432Y106840D01*
X202540Y106865D01*
X202649Y106886D01*
X202758Y106903D01*
X202868Y106917D01*
X202979Y106926D01*
X203089Y106932D01*
X203200Y106934D01*
X208280Y106934D01*
X208391Y106932D01*
X208501Y106926D01*
X208612Y106917D01*
X208722Y106903D01*
X208831Y106886D01*
X208940Y106865D01*
X209048Y106840D01*
X209155Y106811D01*
X209261Y106779D01*
X209366Y106743D01*
X209469Y106703D01*
X209571Y106660D01*
X209672Y106613D01*
X209771Y106562D01*
X209868Y106509D01*
X209962Y106452D01*
X210055Y106391D01*
X210146Y106328D01*
X210235Y106261D01*
X210321Y106191D01*
X210404Y106118D01*
X210486Y106043D01*
X210564Y105965D01*
X210639Y105883D01*
X210712Y105800D01*
X210782Y105714D01*
X210849Y105625D01*
X210912Y105534D01*
X210973Y105441D01*
X211030Y105347D01*
X211083Y105250D01*
X211134Y105151D01*
X211181Y105050D01*
X211224Y104948D01*
X211264Y104845D01*
X211300Y104740D01*
X211332Y104634D01*
X211361Y104527D01*
X211386Y104419D01*
X211407Y104310D01*
X211424Y104201D01*
X211438Y104091D01*
X211447Y103980D01*
X211453Y103870D01*
X211455Y103759D01*
X211455Y100584D01*
X200025Y115888D02*
X200027Y115992D01*
X200033Y116097D01*
X200042Y116201D01*
X200055Y116304D01*
X200073Y116407D01*
X200093Y116509D01*
X200118Y116611D01*
X200146Y116711D01*
X200178Y116811D01*
X200214Y116909D01*
X200253Y117006D01*
X200295Y117101D01*
X200341Y117195D01*
X200391Y117287D01*
X200443Y117377D01*
X200499Y117465D01*
X200559Y117551D01*
X200621Y117635D01*
X200686Y117716D01*
X200754Y117795D01*
X200826Y117872D01*
X200899Y117945D01*
X200976Y118017D01*
X201055Y118085D01*
X201136Y118150D01*
X201220Y118212D01*
X201306Y118272D01*
X201394Y118328D01*
X201484Y118380D01*
X201576Y118430D01*
X201670Y118476D01*
X201765Y118518D01*
X201862Y118557D01*
X201960Y118593D01*
X202060Y118625D01*
X202160Y118653D01*
X202262Y118678D01*
X202364Y118698D01*
X202467Y118716D01*
X202570Y118729D01*
X202674Y118738D01*
X202779Y118744D01*
X202883Y118746D01*
X200025Y115888D02*
X200027Y115770D01*
X200033Y115651D01*
X200042Y115533D01*
X200055Y115416D01*
X200073Y115299D01*
X200093Y115182D01*
X200118Y115066D01*
X200146Y114951D01*
X200179Y114838D01*
X200214Y114725D01*
X200254Y114613D01*
X200296Y114503D01*
X200343Y114394D01*
X200393Y114286D01*
X200446Y114181D01*
X200503Y114077D01*
X200563Y113975D01*
X200626Y113875D01*
X200693Y113777D01*
X200762Y113681D01*
X200835Y113588D01*
X200911Y113497D01*
X200989Y113408D01*
X201071Y113322D01*
X201155Y113239D01*
X201241Y113158D01*
X201331Y113081D01*
X201422Y113006D01*
X201516Y112934D01*
X201613Y112865D01*
X201711Y112800D01*
X201812Y112737D01*
X201915Y112678D01*
X202019Y112622D01*
X202125Y112570D01*
X202233Y112521D01*
X202342Y112476D01*
X202453Y112434D01*
X202565Y112396D01*
X205105Y117793D02*
X205030Y117869D01*
X204951Y117944D01*
X204870Y118015D01*
X204786Y118084D01*
X204700Y118149D01*
X204612Y118211D01*
X204522Y118271D01*
X204430Y118327D01*
X204335Y118380D01*
X204239Y118429D01*
X204141Y118475D01*
X204042Y118518D01*
X203941Y118557D01*
X203839Y118592D01*
X203736Y118624D01*
X203632Y118652D01*
X203527Y118677D01*
X203420Y118698D01*
X203314Y118715D01*
X203207Y118728D01*
X203099Y118737D01*
X202991Y118743D01*
X202883Y118745D01*
X205105Y117793D02*
X211455Y112395D01*
X211455Y118745D01*
D10*
X132080Y43180D02*
X91440Y43180D01*
X91440Y17780D01*
X132080Y17780D01*
X132080Y43180D01*
X118110Y30480D02*
X111760Y30480D01*
X101600Y24130D02*
X101600Y36830D01*
X111760Y30480D01*
X96520Y30480D01*
X101600Y24130D02*
X111760Y30480D01*
X111760Y24130D01*
X111760Y30480D02*
X111760Y36830D01*
D14*
X125730Y30480D03*
D15*
X81915Y30480D03*
X141605Y30480D03*
D11*
X113284Y13335D02*
X113284Y1905D01*
X113284Y13335D02*
X116459Y13335D01*
X116570Y13333D01*
X116680Y13327D01*
X116791Y13318D01*
X116901Y13304D01*
X117010Y13287D01*
X117119Y13266D01*
X117227Y13241D01*
X117334Y13212D01*
X117440Y13180D01*
X117545Y13144D01*
X117648Y13104D01*
X117750Y13061D01*
X117851Y13014D01*
X117950Y12963D01*
X118047Y12910D01*
X118141Y12853D01*
X118234Y12792D01*
X118325Y12729D01*
X118414Y12662D01*
X118500Y12592D01*
X118583Y12519D01*
X118665Y12444D01*
X118743Y12366D01*
X118818Y12284D01*
X118891Y12201D01*
X118961Y12115D01*
X119028Y12026D01*
X119091Y11935D01*
X119152Y11842D01*
X119209Y11748D01*
X119262Y11651D01*
X119313Y11552D01*
X119360Y11451D01*
X119403Y11349D01*
X119443Y11246D01*
X119479Y11141D01*
X119511Y11035D01*
X119540Y10928D01*
X119565Y10820D01*
X119586Y10711D01*
X119603Y10602D01*
X119617Y10492D01*
X119626Y10381D01*
X119632Y10271D01*
X119634Y10160D01*
X119634Y5080D01*
X119632Y4969D01*
X119626Y4859D01*
X119617Y4748D01*
X119603Y4638D01*
X119586Y4529D01*
X119565Y4420D01*
X119540Y4312D01*
X119511Y4205D01*
X119479Y4099D01*
X119443Y3994D01*
X119403Y3891D01*
X119360Y3789D01*
X119313Y3688D01*
X119262Y3589D01*
X119209Y3492D01*
X119152Y3398D01*
X119091Y3305D01*
X119028Y3214D01*
X118961Y3125D01*
X118891Y3039D01*
X118818Y2956D01*
X118743Y2874D01*
X118665Y2796D01*
X118583Y2721D01*
X118500Y2648D01*
X118414Y2578D01*
X118325Y2511D01*
X118234Y2448D01*
X118141Y2387D01*
X118046Y2330D01*
X117950Y2277D01*
X117851Y2226D01*
X117750Y2179D01*
X117648Y2136D01*
X117545Y2096D01*
X117440Y2060D01*
X117334Y2028D01*
X117227Y1999D01*
X117119Y1974D01*
X117010Y1953D01*
X116901Y1936D01*
X116791Y1922D01*
X116680Y1913D01*
X116570Y1907D01*
X116459Y1905D01*
X113284Y1905D01*
X125095Y1905D02*
X128270Y1905D01*
X128381Y1907D01*
X128491Y1913D01*
X128602Y1922D01*
X128712Y1936D01*
X128821Y1953D01*
X128930Y1974D01*
X129038Y1999D01*
X129145Y2028D01*
X129251Y2060D01*
X129356Y2096D01*
X129459Y2136D01*
X129561Y2179D01*
X129662Y2226D01*
X129761Y2277D01*
X129857Y2330D01*
X129952Y2387D01*
X130045Y2448D01*
X130136Y2511D01*
X130225Y2578D01*
X130311Y2648D01*
X130394Y2721D01*
X130476Y2796D01*
X130554Y2874D01*
X130629Y2956D01*
X130702Y3039D01*
X130772Y3125D01*
X130839Y3214D01*
X130902Y3305D01*
X130963Y3398D01*
X131020Y3492D01*
X131073Y3589D01*
X131124Y3688D01*
X131171Y3789D01*
X131214Y3891D01*
X131254Y3994D01*
X131290Y4099D01*
X131322Y4205D01*
X131351Y4312D01*
X131376Y4420D01*
X131397Y4529D01*
X131414Y4638D01*
X131428Y4748D01*
X131437Y4859D01*
X131443Y4969D01*
X131445Y5080D01*
X131443Y5191D01*
X131437Y5301D01*
X131428Y5412D01*
X131414Y5522D01*
X131397Y5631D01*
X131376Y5740D01*
X131351Y5848D01*
X131322Y5955D01*
X131290Y6061D01*
X131254Y6166D01*
X131214Y6269D01*
X131171Y6371D01*
X131124Y6472D01*
X131073Y6571D01*
X131020Y6667D01*
X130963Y6762D01*
X130902Y6855D01*
X130839Y6946D01*
X130772Y7035D01*
X130702Y7121D01*
X130629Y7204D01*
X130554Y7286D01*
X130476Y7364D01*
X130394Y7439D01*
X130311Y7512D01*
X130225Y7582D01*
X130136Y7649D01*
X130045Y7712D01*
X129952Y7773D01*
X129858Y7830D01*
X129761Y7883D01*
X129662Y7934D01*
X129561Y7981D01*
X129459Y8024D01*
X129356Y8064D01*
X129251Y8100D01*
X129145Y8132D01*
X129038Y8161D01*
X128930Y8186D01*
X128821Y8207D01*
X128712Y8224D01*
X128602Y8238D01*
X128491Y8247D01*
X128381Y8253D01*
X128270Y8255D01*
X128905Y13335D02*
X125095Y13335D01*
X128905Y13335D02*
X129005Y13333D01*
X129104Y13327D01*
X129204Y13317D01*
X129302Y13304D01*
X129401Y13286D01*
X129498Y13265D01*
X129594Y13240D01*
X129690Y13211D01*
X129784Y13178D01*
X129877Y13142D01*
X129968Y13102D01*
X130058Y13058D01*
X130146Y13011D01*
X130232Y12961D01*
X130316Y12907D01*
X130398Y12850D01*
X130477Y12790D01*
X130555Y12726D01*
X130629Y12660D01*
X130701Y12591D01*
X130770Y12519D01*
X130836Y12445D01*
X130900Y12367D01*
X130960Y12288D01*
X131017Y12206D01*
X131071Y12122D01*
X131121Y12036D01*
X131168Y11948D01*
X131212Y11858D01*
X131252Y11767D01*
X131288Y11674D01*
X131321Y11580D01*
X131350Y11484D01*
X131375Y11388D01*
X131396Y11291D01*
X131414Y11192D01*
X131427Y11094D01*
X131437Y10994D01*
X131443Y10895D01*
X131445Y10795D01*
X131443Y10695D01*
X131437Y10596D01*
X131427Y10496D01*
X131414Y10398D01*
X131396Y10299D01*
X131375Y10202D01*
X131350Y10106D01*
X131321Y10010D01*
X131288Y9916D01*
X131252Y9823D01*
X131212Y9732D01*
X131168Y9642D01*
X131121Y9554D01*
X131071Y9468D01*
X131017Y9384D01*
X130960Y9302D01*
X130900Y9223D01*
X130836Y9145D01*
X130770Y9071D01*
X130701Y8999D01*
X130629Y8930D01*
X130555Y8864D01*
X130477Y8800D01*
X130398Y8740D01*
X130316Y8683D01*
X130232Y8629D01*
X130146Y8579D01*
X130058Y8532D01*
X129968Y8488D01*
X129877Y8448D01*
X129784Y8412D01*
X129690Y8379D01*
X129594Y8350D01*
X129498Y8325D01*
X129401Y8304D01*
X129302Y8286D01*
X129204Y8273D01*
X129104Y8263D01*
X129005Y8257D01*
X128905Y8255D01*
X126365Y8255D01*
D10*
X22860Y76200D02*
X22860Y116840D01*
X22860Y76200D02*
X48260Y76200D01*
X48260Y116840D01*
X22860Y116840D01*
X35560Y102870D02*
X35560Y96520D01*
X41910Y86360D02*
X29210Y86360D01*
X35560Y96520D01*
X35560Y81280D01*
X41910Y86360D02*
X35560Y96520D01*
X41910Y96520D01*
X35560Y96520D02*
X29210Y96520D01*
D16*
X35560Y110490D03*
D17*
X35560Y66675D03*
X35560Y126365D03*
D11*
X52705Y98044D02*
X64135Y98044D01*
X52705Y98044D02*
X52705Y101219D01*
X52707Y101330D01*
X52713Y101440D01*
X52722Y101551D01*
X52736Y101661D01*
X52753Y101770D01*
X52774Y101879D01*
X52799Y101987D01*
X52828Y102094D01*
X52860Y102200D01*
X52896Y102305D01*
X52936Y102408D01*
X52979Y102510D01*
X53026Y102611D01*
X53077Y102710D01*
X53130Y102807D01*
X53187Y102901D01*
X53248Y102994D01*
X53311Y103085D01*
X53378Y103174D01*
X53448Y103260D01*
X53521Y103343D01*
X53596Y103425D01*
X53674Y103503D01*
X53756Y103578D01*
X53839Y103651D01*
X53925Y103721D01*
X54014Y103788D01*
X54105Y103851D01*
X54198Y103912D01*
X54293Y103969D01*
X54389Y104022D01*
X54488Y104073D01*
X54589Y104120D01*
X54691Y104163D01*
X54794Y104203D01*
X54899Y104239D01*
X55005Y104271D01*
X55112Y104300D01*
X55220Y104325D01*
X55329Y104346D01*
X55438Y104363D01*
X55548Y104377D01*
X55659Y104386D01*
X55769Y104392D01*
X55880Y104394D01*
X60960Y104394D01*
X61071Y104392D01*
X61181Y104386D01*
X61292Y104377D01*
X61402Y104363D01*
X61511Y104346D01*
X61620Y104325D01*
X61728Y104300D01*
X61835Y104271D01*
X61941Y104239D01*
X62046Y104203D01*
X62149Y104163D01*
X62251Y104120D01*
X62352Y104073D01*
X62451Y104022D01*
X62548Y103969D01*
X62642Y103912D01*
X62735Y103851D01*
X62826Y103788D01*
X62915Y103721D01*
X63001Y103651D01*
X63084Y103578D01*
X63166Y103503D01*
X63244Y103425D01*
X63319Y103343D01*
X63392Y103260D01*
X63462Y103174D01*
X63529Y103085D01*
X63592Y102994D01*
X63653Y102901D01*
X63710Y102807D01*
X63763Y102710D01*
X63814Y102611D01*
X63861Y102510D01*
X63904Y102408D01*
X63944Y102305D01*
X63980Y102200D01*
X64012Y102094D01*
X64041Y101987D01*
X64066Y101879D01*
X64087Y101770D01*
X64104Y101661D01*
X64118Y101551D01*
X64127Y101440D01*
X64133Y101330D01*
X64135Y101219D01*
X64135Y98044D01*
X61595Y109855D02*
X52705Y112395D01*
X61595Y109855D02*
X61595Y116205D01*
X59055Y114300D02*
X64135Y114300D01*
X323850Y134620D02*
X325120Y163830D01*
X323850Y134620D02*
X321310Y132080D01*
X227330Y132080D01*
X224790Y134620D01*
X223520Y163830D01*
X226822Y138176D02*
X226824Y138276D01*
X226830Y138377D01*
X226840Y138476D01*
X226854Y138576D01*
X226871Y138675D01*
X226893Y138773D01*
X226919Y138870D01*
X226948Y138966D01*
X226981Y139060D01*
X227018Y139154D01*
X227058Y139246D01*
X227102Y139336D01*
X227150Y139424D01*
X227201Y139511D01*
X227255Y139595D01*
X227313Y139677D01*
X227374Y139757D01*
X227438Y139834D01*
X227505Y139909D01*
X227575Y139981D01*
X227648Y140050D01*
X227723Y140116D01*
X227801Y140180D01*
X227881Y140240D01*
X227964Y140297D01*
X228049Y140350D01*
X228136Y140400D01*
X228225Y140447D01*
X228315Y140490D01*
X228407Y140530D01*
X228501Y140566D01*
X228596Y140598D01*
X228692Y140626D01*
X228790Y140651D01*
X228888Y140671D01*
X228987Y140688D01*
X229087Y140701D01*
X229186Y140710D01*
X229287Y140715D01*
X229387Y140716D01*
X229487Y140713D01*
X229588Y140706D01*
X229687Y140695D01*
X229787Y140680D01*
X229885Y140662D01*
X229983Y140639D01*
X230080Y140612D01*
X230175Y140582D01*
X230270Y140548D01*
X230363Y140510D01*
X230454Y140469D01*
X230544Y140424D01*
X230632Y140376D01*
X230718Y140324D01*
X230802Y140269D01*
X230883Y140210D01*
X230962Y140148D01*
X231039Y140084D01*
X231113Y140016D01*
X231184Y139945D01*
X231253Y139872D01*
X231318Y139796D01*
X231381Y139717D01*
X231440Y139636D01*
X231496Y139553D01*
X231549Y139468D01*
X231598Y139380D01*
X231644Y139291D01*
X231686Y139200D01*
X231725Y139107D01*
X231760Y139013D01*
X231791Y138918D01*
X231819Y138821D01*
X231842Y138724D01*
X231862Y138625D01*
X231878Y138526D01*
X231890Y138427D01*
X231898Y138326D01*
X231902Y138226D01*
X231902Y138126D01*
X231898Y138026D01*
X231890Y137925D01*
X231878Y137826D01*
X231862Y137727D01*
X231842Y137628D01*
X231819Y137531D01*
X231791Y137434D01*
X231760Y137339D01*
X231725Y137245D01*
X231686Y137152D01*
X231644Y137061D01*
X231598Y136972D01*
X231549Y136884D01*
X231496Y136799D01*
X231440Y136716D01*
X231381Y136635D01*
X231318Y136556D01*
X231253Y136480D01*
X231184Y136407D01*
X231113Y136336D01*
X231039Y136268D01*
X230962Y136204D01*
X230883Y136142D01*
X230802Y136083D01*
X230718Y136028D01*
X230632Y135976D01*
X230544Y135928D01*
X230454Y135883D01*
X230363Y135842D01*
X230270Y135804D01*
X230175Y135770D01*
X230080Y135740D01*
X229983Y135713D01*
X229885Y135690D01*
X229787Y135672D01*
X229687Y135657D01*
X229588Y135646D01*
X229487Y135639D01*
X229387Y135636D01*
X229287Y135637D01*
X229186Y135642D01*
X229087Y135651D01*
X228987Y135664D01*
X228888Y135681D01*
X228790Y135701D01*
X228692Y135726D01*
X228596Y135754D01*
X228501Y135786D01*
X228407Y135822D01*
X228315Y135862D01*
X228225Y135905D01*
X228136Y135952D01*
X228049Y136002D01*
X227964Y136055D01*
X227881Y136112D01*
X227801Y136172D01*
X227723Y136236D01*
X227648Y136302D01*
X227575Y136371D01*
X227505Y136443D01*
X227438Y136518D01*
X227374Y136595D01*
X227313Y136675D01*
X227255Y136757D01*
X227201Y136841D01*
X227150Y136928D01*
X227102Y137016D01*
X227058Y137106D01*
X227018Y137198D01*
X226981Y137292D01*
X226948Y137386D01*
X226919Y137482D01*
X226893Y137579D01*
X226871Y137677D01*
X226854Y137776D01*
X226840Y137876D01*
X226830Y137975D01*
X226824Y138076D01*
X226822Y138176D01*
D18*
X274320Y171450D03*
D19*
X230505Y165100D03*
D20*
X261620Y165100D03*
X287020Y165100D03*
D19*
X318135Y165100D03*
D11*
X225425Y126873D02*
X225425Y115443D01*
X224155Y115443D02*
X226695Y115443D01*
X226695Y126873D02*
X224155Y126873D01*
X233897Y115443D02*
X236437Y115443D01*
X233897Y115443D02*
X233797Y115445D01*
X233698Y115451D01*
X233598Y115461D01*
X233500Y115474D01*
X233401Y115492D01*
X233304Y115513D01*
X233208Y115538D01*
X233112Y115567D01*
X233018Y115600D01*
X232925Y115636D01*
X232834Y115676D01*
X232744Y115720D01*
X232656Y115767D01*
X232570Y115817D01*
X232486Y115871D01*
X232404Y115928D01*
X232325Y115988D01*
X232247Y116052D01*
X232173Y116118D01*
X232101Y116187D01*
X232032Y116259D01*
X231966Y116333D01*
X231902Y116411D01*
X231842Y116490D01*
X231785Y116572D01*
X231731Y116656D01*
X231681Y116742D01*
X231634Y116830D01*
X231590Y116920D01*
X231550Y117011D01*
X231514Y117104D01*
X231481Y117198D01*
X231452Y117294D01*
X231427Y117390D01*
X231406Y117487D01*
X231388Y117586D01*
X231375Y117684D01*
X231365Y117784D01*
X231359Y117883D01*
X231357Y117983D01*
X231357Y124333D01*
X231359Y124433D01*
X231365Y124532D01*
X231375Y124632D01*
X231388Y124730D01*
X231406Y124829D01*
X231427Y124926D01*
X231452Y125022D01*
X231481Y125118D01*
X231514Y125212D01*
X231550Y125305D01*
X231590Y125396D01*
X231634Y125486D01*
X231681Y125574D01*
X231731Y125660D01*
X231785Y125744D01*
X231842Y125826D01*
X231902Y125905D01*
X231966Y125983D01*
X232032Y126057D01*
X232101Y126129D01*
X232173Y126198D01*
X232247Y126264D01*
X232325Y126328D01*
X232404Y126388D01*
X232486Y126445D01*
X232570Y126499D01*
X232656Y126549D01*
X232744Y126596D01*
X232834Y126640D01*
X232925Y126680D01*
X233018Y126716D01*
X233112Y126749D01*
X233208Y126778D01*
X233304Y126803D01*
X233401Y126824D01*
X233500Y126842D01*
X233598Y126855D01*
X233698Y126865D01*
X233797Y126871D01*
X233897Y126873D01*
X236437Y126873D01*
X244411Y126874D02*
X244515Y126872D01*
X244620Y126866D01*
X244724Y126857D01*
X244827Y126844D01*
X244930Y126826D01*
X245032Y126806D01*
X245134Y126781D01*
X245234Y126753D01*
X245334Y126721D01*
X245432Y126685D01*
X245529Y126646D01*
X245624Y126604D01*
X245718Y126558D01*
X245810Y126508D01*
X245900Y126456D01*
X245988Y126400D01*
X246074Y126340D01*
X246158Y126278D01*
X246239Y126213D01*
X246318Y126145D01*
X246395Y126073D01*
X246468Y126000D01*
X246540Y125923D01*
X246608Y125844D01*
X246673Y125763D01*
X246735Y125679D01*
X246795Y125593D01*
X246851Y125505D01*
X246903Y125415D01*
X246953Y125323D01*
X246999Y125229D01*
X247041Y125134D01*
X247080Y125037D01*
X247116Y124939D01*
X247148Y124839D01*
X247176Y124739D01*
X247201Y124637D01*
X247221Y124535D01*
X247239Y124432D01*
X247252Y124329D01*
X247261Y124225D01*
X247267Y124120D01*
X247269Y124016D01*
X244411Y126873D02*
X244293Y126871D01*
X244174Y126865D01*
X244056Y126856D01*
X243939Y126843D01*
X243822Y126825D01*
X243705Y126805D01*
X243589Y126780D01*
X243474Y126752D01*
X243361Y126719D01*
X243248Y126684D01*
X243136Y126644D01*
X243026Y126602D01*
X242917Y126555D01*
X242809Y126505D01*
X242704Y126452D01*
X242600Y126395D01*
X242498Y126335D01*
X242398Y126272D01*
X242300Y126205D01*
X242204Y126136D01*
X242111Y126063D01*
X242020Y125987D01*
X241931Y125909D01*
X241845Y125827D01*
X241762Y125743D01*
X241681Y125657D01*
X241604Y125567D01*
X241529Y125476D01*
X241457Y125382D01*
X241388Y125285D01*
X241323Y125187D01*
X241260Y125086D01*
X241201Y124983D01*
X241145Y124879D01*
X241093Y124773D01*
X241044Y124665D01*
X240999Y124556D01*
X240957Y124445D01*
X240919Y124333D01*
X246317Y121794D02*
X246393Y121869D01*
X246468Y121948D01*
X246539Y122029D01*
X246608Y122113D01*
X246673Y122199D01*
X246735Y122287D01*
X246795Y122377D01*
X246851Y122469D01*
X246904Y122564D01*
X246953Y122660D01*
X246999Y122758D01*
X247042Y122857D01*
X247081Y122958D01*
X247116Y123060D01*
X247148Y123163D01*
X247176Y123267D01*
X247201Y123372D01*
X247222Y123479D01*
X247239Y123585D01*
X247252Y123692D01*
X247261Y123800D01*
X247267Y123908D01*
X247269Y124016D01*
X246316Y121793D02*
X240919Y115443D01*
X247269Y115443D01*
D10*
X81280Y111760D02*
X81280Y104140D01*
X100330Y104140D01*
X101600Y102870D01*
X104140Y100330D01*
X106680Y102870D01*
X107950Y104140D01*
X101600Y64770D02*
X101600Y63500D01*
X81280Y63500D01*
X101600Y64770D02*
X106680Y64770D01*
X106680Y63500D01*
X127000Y63500D01*
X127000Y104140D02*
X107950Y104140D01*
X127000Y104140D02*
X127000Y111760D01*
X81280Y104140D02*
X81280Y71120D01*
X81280Y68580D02*
X81280Y63500D01*
X81280Y68580D02*
X85090Y68580D01*
X127000Y68580D02*
X127000Y63500D01*
X127000Y68580D02*
X123190Y68580D01*
X127000Y71120D02*
X127000Y104140D01*
X123190Y71120D02*
X123190Y68580D01*
X123190Y73660D02*
X110490Y73660D01*
X97790Y71120D02*
X97790Y68580D01*
X85090Y68580D02*
X85090Y71120D01*
X85090Y73660D02*
X97790Y73660D01*
X97790Y68580D02*
X110490Y68580D01*
X97790Y71120D02*
X97790Y73660D01*
X110490Y71120D02*
X110490Y68580D01*
X110490Y71120D02*
X110490Y73660D01*
X110490Y71120D02*
X106680Y71120D01*
X106680Y102870D01*
X101600Y71120D02*
X97790Y71120D01*
X101600Y71120D02*
X106680Y71120D01*
X101600Y71120D02*
X101600Y102870D01*
X123190Y71120D02*
X127000Y71120D01*
X123190Y71120D02*
X123190Y73660D01*
X127000Y71120D02*
X127000Y68580D01*
X85090Y71120D02*
X81280Y71120D01*
X85090Y71120D02*
X85090Y73660D01*
X81280Y71120D02*
X81280Y68580D01*
X81280Y111760D02*
X88900Y111760D01*
X88900Y113030D01*
X93980Y113030D02*
X93980Y111760D01*
X93980Y113030D02*
X88900Y113030D01*
X114300Y113030D02*
X114300Y111760D01*
X119380Y111760D02*
X127000Y111760D01*
X119380Y111760D02*
X119380Y113030D01*
X114300Y113030D01*
X106680Y111760D02*
X106680Y110490D01*
X106680Y111760D02*
X114300Y111760D01*
X106680Y110490D02*
X101600Y110490D01*
X101600Y111760D01*
X93980Y111760D01*
D11*
X87249Y98792D02*
X89168Y96393D01*
X87249Y98792D02*
X95885Y98792D01*
X95885Y96393D02*
X95885Y101191D01*
X83185Y116459D02*
X83185Y127889D01*
X81915Y116459D02*
X84455Y116459D01*
X84455Y127889D02*
X81915Y127889D01*
X89535Y127889D02*
X89535Y116459D01*
X95885Y116459D02*
X89535Y127889D01*
X95885Y127889D02*
X95885Y116459D01*
X101918Y116459D02*
X101918Y127889D01*
X105093Y127889D01*
X105204Y127887D01*
X105314Y127881D01*
X105425Y127872D01*
X105535Y127858D01*
X105644Y127841D01*
X105753Y127820D01*
X105861Y127795D01*
X105968Y127766D01*
X106074Y127734D01*
X106179Y127698D01*
X106282Y127658D01*
X106384Y127615D01*
X106485Y127568D01*
X106584Y127517D01*
X106681Y127464D01*
X106775Y127407D01*
X106868Y127346D01*
X106959Y127283D01*
X107048Y127216D01*
X107134Y127146D01*
X107217Y127073D01*
X107299Y126998D01*
X107377Y126920D01*
X107452Y126838D01*
X107525Y126755D01*
X107595Y126669D01*
X107662Y126580D01*
X107725Y126489D01*
X107786Y126396D01*
X107843Y126301D01*
X107896Y126205D01*
X107947Y126106D01*
X107994Y126005D01*
X108037Y125903D01*
X108077Y125800D01*
X108113Y125695D01*
X108145Y125589D01*
X108174Y125482D01*
X108199Y125374D01*
X108220Y125265D01*
X108237Y125156D01*
X108251Y125046D01*
X108260Y124935D01*
X108266Y124825D01*
X108268Y124714D01*
X108266Y124603D01*
X108260Y124493D01*
X108251Y124382D01*
X108237Y124272D01*
X108220Y124163D01*
X108199Y124054D01*
X108174Y123946D01*
X108145Y123839D01*
X108113Y123733D01*
X108077Y123628D01*
X108037Y123525D01*
X107994Y123423D01*
X107947Y123322D01*
X107896Y123223D01*
X107843Y123126D01*
X107786Y123032D01*
X107725Y122939D01*
X107662Y122848D01*
X107595Y122759D01*
X107525Y122673D01*
X107452Y122590D01*
X107377Y122508D01*
X107299Y122430D01*
X107217Y122355D01*
X107134Y122282D01*
X107048Y122212D01*
X106959Y122145D01*
X106868Y122082D01*
X106775Y122021D01*
X106680Y121964D01*
X106584Y121911D01*
X106485Y121860D01*
X106384Y121813D01*
X106282Y121770D01*
X106179Y121730D01*
X106074Y121694D01*
X105968Y121662D01*
X105861Y121633D01*
X105753Y121608D01*
X105644Y121587D01*
X105535Y121570D01*
X105425Y121556D01*
X105314Y121547D01*
X105204Y121541D01*
X105093Y121539D01*
X101918Y121539D01*
X113157Y119634D02*
X113157Y127889D01*
X113157Y119634D02*
X113159Y119523D01*
X113165Y119413D01*
X113174Y119302D01*
X113188Y119192D01*
X113205Y119083D01*
X113226Y118974D01*
X113251Y118866D01*
X113280Y118759D01*
X113312Y118653D01*
X113348Y118548D01*
X113388Y118445D01*
X113431Y118343D01*
X113478Y118242D01*
X113529Y118143D01*
X113582Y118047D01*
X113639Y117952D01*
X113700Y117859D01*
X113763Y117768D01*
X113830Y117679D01*
X113900Y117593D01*
X113973Y117510D01*
X114048Y117428D01*
X114126Y117350D01*
X114208Y117275D01*
X114291Y117202D01*
X114377Y117132D01*
X114466Y117065D01*
X114557Y117002D01*
X114650Y116941D01*
X114745Y116884D01*
X114841Y116831D01*
X114940Y116780D01*
X115041Y116733D01*
X115143Y116690D01*
X115246Y116650D01*
X115351Y116614D01*
X115457Y116582D01*
X115564Y116553D01*
X115672Y116528D01*
X115781Y116507D01*
X115890Y116490D01*
X116000Y116476D01*
X116111Y116467D01*
X116221Y116461D01*
X116332Y116459D01*
X116443Y116461D01*
X116553Y116467D01*
X116664Y116476D01*
X116774Y116490D01*
X116883Y116507D01*
X116992Y116528D01*
X117100Y116553D01*
X117207Y116582D01*
X117313Y116614D01*
X117418Y116650D01*
X117521Y116690D01*
X117623Y116733D01*
X117724Y116780D01*
X117823Y116831D01*
X117919Y116884D01*
X118014Y116941D01*
X118107Y117002D01*
X118198Y117065D01*
X118287Y117132D01*
X118373Y117202D01*
X118456Y117275D01*
X118538Y117350D01*
X118616Y117428D01*
X118691Y117510D01*
X118764Y117593D01*
X118834Y117679D01*
X118901Y117768D01*
X118964Y117859D01*
X119025Y117952D01*
X119082Y118046D01*
X119135Y118143D01*
X119186Y118242D01*
X119233Y118343D01*
X119276Y118445D01*
X119316Y118548D01*
X119352Y118653D01*
X119384Y118759D01*
X119413Y118866D01*
X119438Y118974D01*
X119459Y119083D01*
X119476Y119192D01*
X119490Y119302D01*
X119499Y119413D01*
X119505Y119523D01*
X119507Y119634D01*
X119507Y127889D01*
X127381Y127889D02*
X127381Y116459D01*
X124206Y127889D02*
X130556Y127889D01*
M02*
